%FSLAX46Y46*%
%MOMM*%
%ADD10C,0.010000*%
%ADD11C,0.500000*%
G01*
G01*
%LPD*%
D10*
X91125000Y13625000D02*
X94875000Y17375000D01*
D10*
X94875000Y17375000D02*
X94875000Y13625000D01*
D10*
X94875000Y13625000D02*
X91125000Y13625000D01*
D10*
X60500000Y12500000D02*
X64000000Y16000000D01*
D10*
X64000000Y16000000D02*
X64000000Y49000000D01*
D10*
X64000000Y49000000D02*
X63000000Y50000000D01*
D10*
X63000000Y50000000D02*
X64000000Y51000000D01*
D10*
X64000000Y51000000D02*
X64000000Y84000000D01*
D10*
X64000000Y84000000D02*
X60500000Y87500000D01*
D10*
X60500000Y87500000D02*
X63000000Y90000000D01*
D10*
X63000000Y90000000D02*
X79000000Y90000000D01*
D10*
X79000000Y90000000D02*
X79000000Y87500000D01*
D10*
X79000000Y87500000D02*
X66500000Y75000000D01*
D10*
X66500000Y75000000D02*
X66500000Y60000000D01*
D10*
X66500000Y60000000D02*
X76500000Y50000000D01*
D10*
X76500000Y50000000D02*
X66500000Y40000000D01*
D10*
X66500000Y40000000D02*
X66500000Y25000000D01*
D10*
X66500000Y25000000D02*
X79000000Y12500000D01*
D10*
X79000000Y12500000D02*
X79000000Y10000000D01*
D10*
X79000000Y10000000D02*
X63000000Y10000000D01*
D10*
X63000000Y10000000D02*
X60500000Y12500000D01*
D10*
X5000000Y37500000D02*
X17500000Y50000000D01*
D10*
X17500000Y50000000D02*
X5000000Y62500000D01*
D10*
X5000000Y62500000D02*
X5000000Y37500000D01*
D10*
X5000000Y27500000D02*
X20000000Y12500000D01*
D10*
X20000000Y12500000D02*
X20000000Y10000000D01*
D10*
X20000000Y10000000D02*
X5000000Y10000000D01*
D10*
X5000000Y10000000D02*
X5000000Y27500000D01*
D10*
X5000000Y72500000D02*
X20000000Y87500000D01*
D10*
X20000000Y87500000D02*
X20000000Y90000000D01*
D10*
X20000000Y90000000D02*
X5000000Y90000000D01*
D10*
X5000000Y90000000D02*
X5000000Y72500000D01*
D10*
X95000000Y52500000D02*
X95000000Y47500000D01*
D10*
X95000000Y47500000D02*
X92500000Y50000000D01*
D10*
X92500000Y50000000D02*
X95000000Y52500000D01*
D10*
X0Y0D02*
X0Y100000000D01*
D10*
X0Y100000000D02*
X100000000Y100000000D01*
D10*
X100000000Y100000000D02*
X100000000Y0D01*
D10*
X100000000Y0D02*
X0Y0D01*
D10*
X94875000Y82625000D02*
X91125000Y86375000D01*
D10*
X91125000Y86375000D02*
X94875000Y86375000D01*
D10*
X94875000Y86375000D02*
X94875000Y82625000D01*
D10*
X31000000Y12500000D02*
X34500000Y16000000D01*
D10*
X34500000Y16000000D02*
X34500000Y49000000D01*
D10*
X34500000Y49000000D02*
X33500000Y50000000D01*
D10*
X33500000Y50000000D02*
X34500000Y51000000D01*
D10*
X34500000Y51000000D02*
X34500000Y84000000D01*
D10*
X34500000Y84000000D02*
X31000000Y87500000D01*
D10*
X31000000Y87500000D02*
X33500000Y90000000D01*
D10*
X33500000Y90000000D02*
X49500000Y90000000D01*
D10*
X49500000Y90000000D02*
X49500000Y87500000D01*
D10*
X49500000Y87500000D02*
X37000000Y75000000D01*
D10*
X37000000Y75000000D02*
X37000000Y60000000D01*
D10*
X37000000Y60000000D02*
X47000000Y50000000D01*
D10*
X47000000Y50000000D02*
X37000000Y40000000D01*
D10*
X37000000Y40000000D02*
X37000000Y25000000D01*
D10*
X37000000Y25000000D02*
X49500000Y12500000D01*
D10*
X49500000Y12500000D02*
X49500000Y10000000D01*
D10*
X49500000Y10000000D02*
X33500000Y10000000D01*
D10*
X33500000Y10000000D02*
X31000000Y12500000D01*
D11*
X2678571Y107321432D02*
X1678571Y110321432D01*
D11*
X2678571Y107750000D02*
X1821428Y110321432D01*
D11*
X2678571Y107321432D02*
X2678571Y107750000D01*
D11*
X2821428Y107750000D02*
X1964285Y110321432D01*
D11*
X2678571Y107321432D02*
X3678571Y110178568D01*
D11*
X2392857Y110321432D02*
X1392857Y110321432D01*
D11*
X3964285Y110321432D02*
X3107143Y110321432D01*
D11*
X1821428Y110035712D02*
X1535714Y110321432D01*
D11*
X1964285Y110035712D02*
X2107143Y110321432D01*
D11*
X1964285Y110178568D02*
X2250000Y110321432D01*
D11*
X3678571Y110178568D02*
X3392857Y110321432D01*
D11*
X3678571Y110178568D02*
X3821428Y110321432D01*
D11*
X7107143Y108750000D02*
X4678571Y108750000D01*
D11*
X7107143Y108607144D02*
X7107143Y108750000D01*
D11*
X4678571Y108607144D02*
X4678571Y108750000D01*
D11*
X7107143Y108607144D02*
X4678571Y108607144D01*
D11*
X10250000Y110321432D02*
X10107143Y109892856D01*
D11*
X10250000Y109464288D02*
X10250000Y110321432D01*
D11*
X10107143Y109892856D02*
X10250000Y109464288D01*
D11*
X9821428Y110178568D02*
X10107143Y109892856D01*
D11*
X9535714Y110321432D02*
X9821428Y110178568D01*
D11*
X9107142Y110321432D02*
X9535714Y110321432D01*
D11*
X8678572Y110178568D02*
X9107142Y110321432D01*
D11*
X8392857Y109892856D02*
X8678572Y110178568D01*
D11*
X8250000Y109607144D02*
X8392857Y109892856D01*
D11*
X8107143Y109178568D02*
X8250000Y109607144D01*
D11*
X8107143Y108464288D02*
X8107143Y109178568D01*
D11*
X8250000Y108035712D02*
X8107143Y108464288D01*
D11*
X8392857Y107750000D02*
X8250000Y108035712D01*
D11*
X8678572Y107464288D02*
X8392857Y107750000D01*
D11*
X9107142Y107321432D02*
X8678572Y107464288D01*
D11*
X9535714Y107321432D02*
X9107142Y107321432D01*
D11*
X9821428Y107464288D02*
X9535714Y107321432D01*
D11*
X10107143Y107750000D02*
X9821428Y107464288D01*
D11*
X10250000Y108035712D02*
X10107143Y107750000D01*
D11*
X8392857Y109607144D02*
X8535714Y109892856D01*
D11*
X8250000Y109178568D02*
X8392857Y109607144D01*
D11*
X8250000Y108464288D02*
X8250000Y109178568D01*
D11*
X8392857Y108035712D02*
X8250000Y108464288D01*
D11*
X8535714Y107750000D02*
X8392857Y108035712D01*
D11*
X8821428Y110178568D02*
X9107142Y110321432D01*
D11*
X8535714Y109750000D02*
X8821428Y110178568D01*
D11*
X8392857Y109178568D02*
X8535714Y109750000D01*
D11*
X8392857Y108464288D02*
X8392857Y109178568D01*
D11*
X8535714Y107892856D02*
X8392857Y108464288D01*
D11*
X8821428Y107464288D02*
X8535714Y107892856D01*
D11*
X9107142Y107321432D02*
X8821428Y107464288D01*
D11*
X11392857Y108035712D02*
X11392857Y109321432D01*
D11*
X11535714Y107607144D02*
X11392857Y108035712D01*
D11*
X11678571Y107464288D02*
X11535714Y107607144D01*
D11*
X11964286Y107321432D02*
X11678571Y107464288D01*
D11*
X12392857Y107321432D02*
X11964286Y107321432D01*
D11*
X12678571Y107464288D02*
X12392857Y107321432D01*
D11*
X12821428Y107607144D02*
X12678571Y107464288D01*
D11*
X12964286Y107892856D02*
X12821428Y107607144D01*
D11*
X11535714Y107892856D02*
X11535714Y109178568D01*
D11*
X11678571Y107607144D02*
X11535714Y107892856D01*
D11*
X11678571Y109321432D02*
X10964286Y109321432D01*
D11*
X11678571Y107892856D02*
X11678571Y109321432D01*
D11*
X11821428Y107464288D02*
X11678571Y107892856D01*
D11*
X11964286Y107321432D02*
X11821428Y107464288D01*
D11*
X12964286Y107321432D02*
X12964286Y109321432D01*
D11*
X13678571Y107321432D02*
X12964286Y107321432D01*
D11*
X13107143Y107464288D02*
X13107143Y109178568D01*
D11*
X13250000Y109321432D02*
X12535714Y109321432D01*
D11*
X13250000Y107321432D02*
X13250000Y109321432D01*
D11*
X11392857Y109178568D02*
X11107143Y109321432D01*
D11*
X11392857Y109035712D02*
X11250000Y109321432D01*
D11*
X13392857Y107321432D02*
X13250000Y107607144D01*
D11*
X13535714Y107321432D02*
X13250000Y107464288D01*
D11*
X14678571Y108035712D02*
X14678571Y110035712D01*
D11*
X14821428Y107607144D02*
X14678571Y108035712D01*
D11*
X14964286Y107464288D02*
X14821428Y107607144D01*
D11*
X15250000Y107321432D02*
X14964286Y107464288D01*
D11*
X15535714Y107321432D02*
X15250000Y107321432D01*
D11*
X15821428Y107464288D02*
X15535714Y107321432D01*
D11*
X15964285Y107750000D02*
X15821428Y107464288D01*
D11*
X14821428Y107892856D02*
X14821428Y110035712D01*
D11*
X14964286Y107607144D02*
X14821428Y107892856D01*
D11*
X14964286Y110321432D02*
X14678571Y110035712D01*
D11*
X14964286Y107892856D02*
X14964286Y110321432D01*
D11*
X15107143Y107464288D02*
X14964286Y107892856D01*
D11*
X15250000Y107321432D02*
X15107143Y107464288D01*
D11*
X15535714Y109321432D02*
X14250000Y109321432D01*
D11*
X-22178572Y83571432D02*
X-23178572Y86571432D01*
D11*
X-22178572Y84000000D02*
X-23035714Y86571432D01*
D11*
X-22178572Y83571432D02*
X-22178572Y84000000D01*
D11*
X-22035714Y84000000D02*
X-22892856Y86571432D01*
D11*
X-22178572Y83571432D02*
X-21178572Y86428568D01*
D11*
X-22464286Y86571432D02*
X-23464284Y86571432D01*
D11*
X-20892856Y86571432D02*
X-21750000Y86571432D01*
D11*
X-23035714Y86285712D02*
X-23321428Y86571432D01*
D11*
X-22892856Y86285712D02*
X-22750000Y86571432D01*
D11*
X-22892856Y86428568D02*
X-22607144Y86571432D01*
D11*
X-21178572Y86428568D02*
X-21464286Y86571432D01*
D11*
X-21178572Y86428568D02*
X-21035714Y86571432D01*
D11*
X-17750000Y85000000D02*
X-20178572Y85000000D01*
D11*
X-17750000Y84857144D02*
X-17750000Y85000000D01*
D11*
X-20178572Y84857144D02*
X-20178572Y85000000D01*
D11*
X-17750000Y84857144D02*
X-20178572Y84857144D01*
D11*
X-14607143Y86571432D02*
X-14750000Y86142856D01*
D11*
X-14607143Y85714288D02*
X-14607143Y86571432D01*
D11*
X-14750000Y86142856D02*
X-14607143Y85714288D01*
D11*
X-15035714Y86428568D02*
X-14750000Y86142856D01*
D11*
X-15321428Y86571432D02*
X-15035714Y86428568D01*
D11*
X-15750000Y86571432D02*
X-15321428Y86571432D01*
D11*
X-16178572Y86428568D02*
X-15750000Y86571432D01*
D11*
X-16464286Y86142856D02*
X-16178572Y86428568D01*
D11*
X-16607142Y85857144D02*
X-16464286Y86142856D01*
D11*
X-16750000Y85428568D02*
X-16607142Y85857144D01*
D11*
X-16750000Y84714288D02*
X-16750000Y85428568D01*
D11*
X-16607142Y84285712D02*
X-16750000Y84714288D01*
D11*
X-16464286Y84000000D02*
X-16607142Y84285712D01*
D11*
X-16178572Y83714288D02*
X-16464286Y84000000D01*
D11*
X-15750000Y83571432D02*
X-16178572Y83714288D01*
D11*
X-15321428Y83571432D02*
X-15750000Y83571432D01*
D11*
X-15035714Y83714288D02*
X-15321428Y83571432D01*
D11*
X-14750000Y84000000D02*
X-15035714Y83714288D01*
D11*
X-14607143Y84285712D02*
X-14750000Y84000000D01*
D11*
X-16464286Y85857144D02*
X-16321428Y86142856D01*
D11*
X-16607142Y85428568D02*
X-16464286Y85857144D01*
D11*
X-16607142Y84714288D02*
X-16607142Y85428568D01*
D11*
X-16464286Y84285712D02*
X-16607142Y84714288D01*
D11*
X-16321428Y84000000D02*
X-16464286Y84285712D01*
D11*
X-16035714Y86428568D02*
X-15750000Y86571432D01*
D11*
X-16321428Y86000000D02*
X-16035714Y86428568D01*
D11*
X-16464286Y85428568D02*
X-16321428Y86000000D01*
D11*
X-16464286Y84714288D02*
X-16464286Y85428568D01*
D11*
X-16321428Y84142856D02*
X-16464286Y84714288D01*
D11*
X-16035714Y83714288D02*
X-16321428Y84142856D01*
D11*
X-15750000Y83571432D02*
X-16035714Y83714288D01*
D11*
X-13464286Y84285712D02*
X-13464286Y85571432D01*
D11*
X-13321428Y83857144D02*
X-13464286Y84285712D01*
D11*
X-13178572Y83714288D02*
X-13321428Y83857144D01*
D11*
X-12892857Y83571432D02*
X-13178572Y83714288D01*
D11*
X-12464286Y83571432D02*
X-12892857Y83571432D01*
D11*
X-12178572Y83714288D02*
X-12464286Y83571432D01*
D11*
X-12035714Y83857144D02*
X-12178572Y83714288D01*
D11*
X-11892857Y84142856D02*
X-12035714Y83857144D01*
D11*
X-13321428Y84142856D02*
X-13321428Y85428568D01*
D11*
X-13178572Y83857144D02*
X-13321428Y84142856D01*
D11*
X-13178572Y85571432D02*
X-13892857Y85571432D01*
D11*
X-13178572Y84142856D02*
X-13178572Y85571432D01*
D11*
X-13035714Y83714288D02*
X-13178572Y84142856D01*
D11*
X-12892857Y83571432D02*
X-13035714Y83714288D01*
D11*
X-11892857Y83571432D02*
X-11892857Y85571432D01*
D11*
X-11178572Y83571432D02*
X-11892857Y83571432D01*
D11*
X-11750000Y83714288D02*
X-11750000Y85428568D01*
D11*
X-11607143Y85571432D02*
X-12321428Y85571432D01*
D11*
X-11607143Y83571432D02*
X-11607143Y85571432D01*
D11*
X-13464286Y85428568D02*
X-13750000Y85571432D01*
D11*
X-13464286Y85285712D02*
X-13607143Y85571432D01*
D11*
X-11464286Y83571432D02*
X-11607143Y83857144D01*
D11*
X-11321428Y83571432D02*
X-11607143Y83714288D01*
D11*
X-10178571Y84285712D02*
X-10178571Y86285712D01*
D11*
X-10035714Y83857144D02*
X-10178571Y84285712D01*
D11*
X-9892857Y83714288D02*
X-10035714Y83857144D01*
D11*
X-9607143Y83571432D02*
X-9892857Y83714288D01*
D11*
X-9321429Y83571432D02*
X-9607143Y83571432D01*
D11*
X-9035714Y83714288D02*
X-9321429Y83571432D01*
D11*
X-8892857Y84000000D02*
X-9035714Y83714288D01*
D11*
X-10035714Y84142856D02*
X-10035714Y86285712D01*
D11*
X-9892857Y83857144D02*
X-10035714Y84142856D01*
D11*
X-9892857Y86571432D02*
X-10178571Y86285712D01*
D11*
X-9892857Y84142856D02*
X-9892857Y86571432D01*
D11*
X-9750000Y83714288D02*
X-9892857Y84142856D01*
D11*
X-9607143Y83571432D02*
X-9750000Y83714288D01*
D11*
X-9321429Y85571432D02*
X-10607143Y85571432D01*
D11*
X-22178572Y13571429D02*
X-23178572Y16571428D01*
D11*
X-22178572Y14000000D02*
X-23035714Y16571428D01*
D11*
X-22178572Y13571429D02*
X-22178572Y14000000D01*
D11*
X-22035714Y14000000D02*
X-22892856Y16571428D01*
D11*
X-22178572Y13571429D02*
X-21178572Y16428571D01*
D11*
X-22464286Y16571428D02*
X-23464284Y16571428D01*
D11*
X-20892856Y16571428D02*
X-21750000Y16571428D01*
D11*
X-23035714Y16285714D02*
X-23321428Y16571428D01*
D11*
X-22892856Y16285714D02*
X-22750000Y16571428D01*
D11*
X-22892856Y16428571D02*
X-22607144Y16571428D01*
D11*
X-21178572Y16428571D02*
X-21464286Y16571428D01*
D11*
X-21178572Y16428571D02*
X-21035714Y16571428D01*
D11*
X-17750000Y15000000D02*
X-20178572Y15000000D01*
D11*
X-17750000Y14857143D02*
X-17750000Y15000000D01*
D11*
X-20178572Y14857143D02*
X-20178572Y15000000D01*
D11*
X-17750000Y14857143D02*
X-20178572Y14857143D01*
D11*
X-14607143Y16571428D02*
X-14750000Y16142857D01*
D11*
X-14607143Y15714286D02*
X-14607143Y16571428D01*
D11*
X-14750000Y16142857D02*
X-14607143Y15714286D01*
D11*
X-15035714Y16428571D02*
X-14750000Y16142857D01*
D11*
X-15321428Y16571428D02*
X-15035714Y16428571D01*
D11*
X-15750000Y16571428D02*
X-15321428Y16571428D01*
D11*
X-16178572Y16428571D02*
X-15750000Y16571428D01*
D11*
X-16464286Y16142857D02*
X-16178572Y16428571D01*
D11*
X-16607142Y15857143D02*
X-16464286Y16142857D01*
D11*
X-16750000Y15428571D02*
X-16607142Y15857143D01*
D11*
X-16750000Y14714286D02*
X-16750000Y15428571D01*
D11*
X-16607142Y14285714D02*
X-16750000Y14714286D01*
D11*
X-16464286Y14000000D02*
X-16607142Y14285714D01*
D11*
X-16178572Y13714286D02*
X-16464286Y14000000D01*
D11*
X-15750000Y13571429D02*
X-16178572Y13714286D01*
D11*
X-15321428Y13571429D02*
X-15750000Y13571429D01*
D11*
X-15035714Y13714286D02*
X-15321428Y13571429D01*
D11*
X-14750000Y14000000D02*
X-15035714Y13714286D01*
D11*
X-14607143Y14285714D02*
X-14750000Y14000000D01*
D11*
X-16464286Y15857143D02*
X-16321428Y16142857D01*
D11*
X-16607142Y15428571D02*
X-16464286Y15857143D01*
D11*
X-16607142Y14714286D02*
X-16607142Y15428571D01*
D11*
X-16464286Y14285714D02*
X-16607142Y14714286D01*
D11*
X-16321428Y14000000D02*
X-16464286Y14285714D01*
D11*
X-16035714Y16428571D02*
X-15750000Y16571428D01*
D11*
X-16321428Y16000000D02*
X-16035714Y16428571D01*
D11*
X-16464286Y15428571D02*
X-16321428Y16000000D01*
D11*
X-16464286Y14714286D02*
X-16464286Y15428571D01*
D11*
X-16321428Y14142857D02*
X-16464286Y14714286D01*
D11*
X-16035714Y13714286D02*
X-16321428Y14142857D01*
D11*
X-15750000Y13571429D02*
X-16035714Y13714286D01*
D11*
X-13464286Y14285714D02*
X-13464286Y15571429D01*
D11*
X-13321428Y13857143D02*
X-13464286Y14285714D01*
D11*
X-13178572Y13714286D02*
X-13321428Y13857143D01*
D11*
X-12892857Y13571429D02*
X-13178572Y13714286D01*
D11*
X-12464286Y13571429D02*
X-12892857Y13571429D01*
D11*
X-12178572Y13714286D02*
X-12464286Y13571429D01*
D11*
X-12035714Y13857143D02*
X-12178572Y13714286D01*
D11*
X-11892857Y14142857D02*
X-12035714Y13857143D01*
D11*
X-13321428Y14142857D02*
X-13321428Y15428571D01*
D11*
X-13178572Y13857143D02*
X-13321428Y14142857D01*
D11*
X-13178572Y15571429D02*
X-13892857Y15571429D01*
D11*
X-13178572Y14142857D02*
X-13178572Y15571429D01*
D11*
X-13035714Y13714286D02*
X-13178572Y14142857D01*
D11*
X-12892857Y13571429D02*
X-13035714Y13714286D01*
D11*
X-11892857Y13571429D02*
X-11892857Y15571429D01*
D11*
X-11178572Y13571429D02*
X-11892857Y13571429D01*
D11*
X-11750000Y13714286D02*
X-11750000Y15428571D01*
D11*
X-11607143Y15571429D02*
X-12321428Y15571429D01*
D11*
X-11607143Y13571429D02*
X-11607143Y15571429D01*
D11*
X-13464286Y15428571D02*
X-13750000Y15571429D01*
D11*
X-13464286Y15285714D02*
X-13607143Y15571429D01*
D11*
X-11464286Y13571429D02*
X-11607143Y13857143D01*
D11*
X-11321428Y13571429D02*
X-11607143Y13714286D01*
D11*
X-10178571Y14285714D02*
X-10178571Y16285714D01*
D11*
X-10035714Y13857143D02*
X-10178571Y14285714D01*
D11*
X-9892857Y13714286D02*
X-10035714Y13857143D01*
D11*
X-9607143Y13571429D02*
X-9892857Y13714286D01*
D11*
X-9321429Y13571429D02*
X-9607143Y13571429D01*
D11*
X-9035714Y13714286D02*
X-9321429Y13571429D01*
D11*
X-8892857Y14000000D02*
X-9035714Y13714286D01*
D11*
X-10035714Y14142857D02*
X-10035714Y16285714D01*
D11*
X-9892857Y13857143D02*
X-10035714Y14142857D01*
D11*
X-9892857Y16571428D02*
X-10178571Y16285714D01*
D11*
X-9892857Y14142857D02*
X-9892857Y16571428D01*
D11*
X-9750000Y13714286D02*
X-9892857Y14142857D01*
D11*
X-9607143Y13571429D02*
X-9750000Y13714286D01*
D11*
X-9321429Y15571429D02*
X-10607143Y15571429D01*
D11*
X-22178572Y48571428D02*
X-23178572Y51571428D01*
D11*
X-22178572Y49000000D02*
X-23035714Y51571428D01*
D11*
X-22178572Y48571428D02*
X-22178572Y49000000D01*
D11*
X-22035714Y49000000D02*
X-22892856Y51571428D01*
D11*
X-22178572Y48571428D02*
X-21178572Y51428572D01*
D11*
X-22464286Y51571428D02*
X-23464284Y51571428D01*
D11*
X-20892856Y51571428D02*
X-21750000Y51571428D01*
D11*
X-23035714Y51285716D02*
X-23321428Y51571428D01*
D11*
X-22892856Y51285716D02*
X-22750000Y51571428D01*
D11*
X-22892856Y51428572D02*
X-22607144Y51571428D01*
D11*
X-21178572Y51428572D02*
X-21464286Y51571428D01*
D11*
X-21178572Y51428572D02*
X-21035714Y51571428D01*
D11*
X-17750000Y50000000D02*
X-20178572Y50000000D01*
D11*
X-17750000Y49857144D02*
X-17750000Y50000000D01*
D11*
X-20178572Y49857144D02*
X-20178572Y50000000D01*
D11*
X-17750000Y49857144D02*
X-20178572Y49857144D01*
D11*
X-14607143Y51571428D02*
X-14750000Y51142856D01*
D11*
X-14607143Y50714284D02*
X-14607143Y51571428D01*
D11*
X-14750000Y51142856D02*
X-14607143Y50714284D01*
D11*
X-15035714Y51428572D02*
X-14750000Y51142856D01*
D11*
X-15321428Y51571428D02*
X-15035714Y51428572D01*
D11*
X-15750000Y51571428D02*
X-15321428Y51571428D01*
D11*
X-16178572Y51428572D02*
X-15750000Y51571428D01*
D11*
X-16464286Y51142856D02*
X-16178572Y51428572D01*
D11*
X-16607142Y50857144D02*
X-16464286Y51142856D01*
D11*
X-16750000Y50428572D02*
X-16607142Y50857144D01*
D11*
X-16750000Y49714284D02*
X-16750000Y50428572D01*
D11*
X-16607142Y49285716D02*
X-16750000Y49714284D01*
D11*
X-16464286Y49000000D02*
X-16607142Y49285716D01*
D11*
X-16178572Y48714284D02*
X-16464286Y49000000D01*
D11*
X-15750000Y48571428D02*
X-16178572Y48714284D01*
D11*
X-15321428Y48571428D02*
X-15750000Y48571428D01*
D11*
X-15035714Y48714284D02*
X-15321428Y48571428D01*
D11*
X-14750000Y49000000D02*
X-15035714Y48714284D01*
D11*
X-14607143Y49285716D02*
X-14750000Y49000000D01*
D11*
X-16464286Y50857144D02*
X-16321428Y51142856D01*
D11*
X-16607142Y50428572D02*
X-16464286Y50857144D01*
D11*
X-16607142Y49714284D02*
X-16607142Y50428572D01*
D11*
X-16464286Y49285716D02*
X-16607142Y49714284D01*
D11*
X-16321428Y49000000D02*
X-16464286Y49285716D01*
D11*
X-16035714Y51428572D02*
X-15750000Y51571428D01*
D11*
X-16321428Y51000000D02*
X-16035714Y51428572D01*
D11*
X-16464286Y50428572D02*
X-16321428Y51000000D01*
D11*
X-16464286Y49714284D02*
X-16464286Y50428572D01*
D11*
X-16321428Y49142856D02*
X-16464286Y49714284D01*
D11*
X-16035714Y48714284D02*
X-16321428Y49142856D01*
D11*
X-15750000Y48571428D02*
X-16035714Y48714284D01*
D11*
X-13464286Y49285716D02*
X-13464286Y50571428D01*
D11*
X-13321428Y48857144D02*
X-13464286Y49285716D01*
D11*
X-13178572Y48714284D02*
X-13321428Y48857144D01*
D11*
X-12892857Y48571428D02*
X-13178572Y48714284D01*
D11*
X-12464286Y48571428D02*
X-12892857Y48571428D01*
D11*
X-12178572Y48714284D02*
X-12464286Y48571428D01*
D11*
X-12035714Y48857144D02*
X-12178572Y48714284D01*
D11*
X-11892857Y49142856D02*
X-12035714Y48857144D01*
D11*
X-13321428Y49142856D02*
X-13321428Y50428572D01*
D11*
X-13178572Y48857144D02*
X-13321428Y49142856D01*
D11*
X-13178572Y50571428D02*
X-13892857Y50571428D01*
D11*
X-13178572Y49142856D02*
X-13178572Y50571428D01*
D11*
X-13035714Y48714284D02*
X-13178572Y49142856D01*
D11*
X-12892857Y48571428D02*
X-13035714Y48714284D01*
D11*
X-11892857Y48571428D02*
X-11892857Y50571428D01*
D11*
X-11178572Y48571428D02*
X-11892857Y48571428D01*
D11*
X-11750000Y48714284D02*
X-11750000Y50428572D01*
D11*
X-11607143Y50571428D02*
X-12321428Y50571428D01*
D11*
X-11607143Y48571428D02*
X-11607143Y50571428D01*
D11*
X-13464286Y50428572D02*
X-13750000Y50571428D01*
D11*
X-13464286Y50285716D02*
X-13607143Y50571428D01*
D11*
X-11464286Y48571428D02*
X-11607143Y48857144D01*
D11*
X-11321428Y48571428D02*
X-11607143Y48714284D01*
D11*
X-10178571Y49285716D02*
X-10178571Y51285716D01*
D11*
X-10035714Y48857144D02*
X-10178571Y49285716D01*
D11*
X-9892857Y48714284D02*
X-10035714Y48857144D01*
D11*
X-9607143Y48571428D02*
X-9892857Y48714284D01*
D11*
X-9321429Y48571428D02*
X-9607143Y48571428D01*
D11*
X-9035714Y48714284D02*
X-9321429Y48571428D01*
D11*
X-8892857Y49000000D02*
X-9035714Y48714284D01*
D11*
X-10035714Y49142856D02*
X-10035714Y51285716D01*
D11*
X-9892857Y48857144D02*
X-10035714Y49142856D01*
D11*
X-9892857Y51571428D02*
X-10178571Y51285716D01*
D11*
X-9892857Y49142856D02*
X-9892857Y51571428D01*
D11*
X-9750000Y48714284D02*
X-9892857Y49142856D01*
D11*
X-9607143Y48571428D02*
X-9750000Y48714284D01*
D11*
X-9321429Y50571428D02*
X-10607143Y50571428D01*
D11*
X88428568Y107321432D02*
X87428568Y110321432D01*
D11*
X88428568Y107750000D02*
X87571432Y110321432D01*
D11*
X88428568Y107321432D02*
X88428568Y107750000D01*
D11*
X88571432Y107750000D02*
X87714288Y110321432D01*
D11*
X88428568Y107321432D02*
X89428568Y110178568D01*
D11*
X88142856Y110321432D02*
X87142856Y110321432D01*
D11*
X89714288Y110321432D02*
X88857144Y110321432D01*
D11*
X87571432Y110035712D02*
X87285712Y110321432D01*
D11*
X87714288Y110035712D02*
X87857144Y110321432D01*
D11*
X87714288Y110178568D02*
X88000000Y110321432D01*
D11*
X89428568Y110178568D02*
X89142856Y110321432D01*
D11*
X89428568Y110178568D02*
X89571432Y110321432D01*
D11*
X92857144Y108750000D02*
X90428568Y108750000D01*
D11*
X92857144Y108607144D02*
X92857144Y108750000D01*
D11*
X90428568Y108607144D02*
X90428568Y108750000D01*
D11*
X92857144Y108607144D02*
X90428568Y108607144D01*
D11*
X96000000Y110321432D02*
X95857144Y109892856D01*
D11*
X96000000Y109464288D02*
X96000000Y110321432D01*
D11*
X95857144Y109892856D02*
X96000000Y109464288D01*
D11*
X95571424Y110178568D02*
X95857144Y109892856D01*
D11*
X95285712Y110321432D02*
X95571424Y110178568D01*
D11*
X94857144Y110321432D02*
X95285712Y110321432D01*
D11*
X94428568Y110178568D02*
X94857144Y110321432D01*
D11*
X94142856Y109892856D02*
X94428568Y110178568D01*
D11*
X94000000Y109607144D02*
X94142856Y109892856D01*
D11*
X93857144Y109178568D02*
X94000000Y109607144D01*
D11*
X93857144Y108464288D02*
X93857144Y109178568D01*
D11*
X94000000Y108035712D02*
X93857144Y108464288D01*
D11*
X94142856Y107750000D02*
X94000000Y108035712D01*
D11*
X94428568Y107464288D02*
X94142856Y107750000D01*
D11*
X94857144Y107321432D02*
X94428568Y107464288D01*
D11*
X95285712Y107321432D02*
X94857144Y107321432D01*
D11*
X95571424Y107464288D02*
X95285712Y107321432D01*
D11*
X95857144Y107750000D02*
X95571424Y107464288D01*
D11*
X96000000Y108035712D02*
X95857144Y107750000D01*
D11*
X94142856Y109607144D02*
X94285712Y109892856D01*
D11*
X94000000Y109178568D02*
X94142856Y109607144D01*
D11*
X94000000Y108464288D02*
X94000000Y109178568D01*
D11*
X94142856Y108035712D02*
X94000000Y108464288D01*
D11*
X94285712Y107750000D02*
X94142856Y108035712D01*
D11*
X94571432Y110178568D02*
X94857144Y110321432D01*
D11*
X94285712Y109750000D02*
X94571432Y110178568D01*
D11*
X94142856Y109178568D02*
X94285712Y109750000D01*
D11*
X94142856Y108464288D02*
X94142856Y109178568D01*
D11*
X94285712Y107892856D02*
X94142856Y108464288D01*
D11*
X94571432Y107464288D02*
X94285712Y107892856D01*
D11*
X94857144Y107321432D02*
X94571432Y107464288D01*
D11*
X97142856Y108035712D02*
X97142856Y109321432D01*
D11*
X97285712Y107607144D02*
X97142856Y108035712D01*
D11*
X97428568Y107464288D02*
X97285712Y107607144D01*
D11*
X97714288Y107321432D02*
X97428568Y107464288D01*
D11*
X98142856Y107321432D02*
X97714288Y107321432D01*
D11*
X98428568Y107464288D02*
X98142856Y107321432D01*
D11*
X98571424Y107607144D02*
X98428568Y107464288D01*
D11*
X98714288Y107892856D02*
X98571424Y107607144D01*
D11*
X97285712Y107892856D02*
X97285712Y109178568D01*
D11*
X97428568Y107607144D02*
X97285712Y107892856D01*
D11*
X97428568Y109321432D02*
X96714288Y109321432D01*
D11*
X97428568Y107892856D02*
X97428568Y109321432D01*
D11*
X97571424Y107464288D02*
X97428568Y107892856D01*
D11*
X97714288Y107321432D02*
X97571424Y107464288D01*
D11*
X98714288Y107321432D02*
X98714288Y109321432D01*
D11*
X99428568Y107321432D02*
X98714288Y107321432D01*
D11*
X98857144Y107464288D02*
X98857144Y109178568D01*
D11*
X99000000Y109321432D02*
X98285712Y109321432D01*
D11*
X99000000Y107321432D02*
X99000000Y109321432D01*
D11*
X97142856Y109178568D02*
X96857144Y109321432D01*
D11*
X97142856Y109035712D02*
X97000000Y109321432D01*
D11*
X99142856Y107321432D02*
X99000000Y107607144D01*
D11*
X99285712Y107321432D02*
X99000000Y107464288D01*
D11*
X100428568Y108035712D02*
X100428568Y110035712D01*
D11*
X100571424Y107607144D02*
X100428568Y108035712D01*
D11*
X100714288Y107464288D02*
X100571424Y107607144D01*
D11*
X101000000Y107321432D02*
X100714288Y107464288D01*
D11*
X101285712Y107321432D02*
X101000000Y107321432D01*
D11*
X101571424Y107464288D02*
X101285712Y107321432D01*
D11*
X101714288Y107750000D02*
X101571424Y107464288D01*
D11*
X100571424Y107892856D02*
X100571424Y110035712D01*
D11*
X100714288Y107607144D02*
X100571424Y107892856D01*
D11*
X100714288Y110321432D02*
X100428568Y110035712D01*
D11*
X100714288Y107892856D02*
X100714288Y110321432D01*
D11*
X100857144Y107464288D02*
X100714288Y107892856D01*
D11*
X101000000Y107321432D02*
X100857144Y107464288D01*
D11*
X101285712Y109321432D02*
X100000000Y109321432D01*
D11*
X-5000000Y50000000D02*
X110000000Y50000000D01*
D11*
X-5000000Y15000000D02*
X110000000Y15000000D01*
D11*
X7500000Y106250000D02*
X7500000Y-5000000D01*
D11*
X93250000Y106250000D02*
X93250000Y-5000000D01*
D11*
X-5000000Y85000000D02*
X112500000Y85000000D01*
G75*
M02*
