%FSLAX46Y46*%
%MOMM*%
%ADD10C,0.250000*%
%AMPS12*
1,1,1.700000,0.000000,0.000000*
%
%ADD12PS12*%
%AMPS11*
1,1,1.700000,0.000000,0.000000*
%
%ADD11PS11*%
%AMPS13*
1,1,0.700000,0.000000,0.000000*
%
%ADD13PS13*%
G01*
G01*
%LPD*%
D10*
X23350000Y69405000D02*
X23350000Y65595000D01*
D10*
X23985000Y64960000D02*
X28430000Y64960000D01*
D10*
X22080000Y66230000D02*
X22080000Y68770000D01*
D10*
X13825000Y69405000D02*
X14460000Y70040000D01*
D10*
X24620000Y70040000D02*
X28430000Y70040000D01*
D10*
X28430000Y64960000D02*
X29700000Y63690000D01*
D10*
X28430000Y70040000D02*
X29700000Y71310000D01*
D10*
X15730000Y67500000D02*
X17000000Y68770000D01*
D10*
X18270000Y56070000D02*
X13825000Y60515000D01*
D10*
X29700000Y66230000D02*
X28430000Y67500000D01*
D10*
X17000000Y68770000D02*
X17000000Y71945000D01*
D10*
X13825000Y60515000D02*
X13825000Y69405000D01*
D10*
X29700000Y58610000D02*
X29700000Y61150000D01*
D10*
X27160000Y56070000D02*
X18270000Y56070000D01*
D10*
X23350000Y71310000D02*
X22080000Y71310000D01*
D10*
X17000000Y71945000D02*
X17635000Y72580000D01*
D10*
X15730000Y63690000D02*
X15730000Y64960000D01*
D10*
X20810000Y64960000D02*
X22080000Y66230000D01*
D10*
X18270000Y64960000D02*
X20810000Y64960000D01*
D10*
X18270000Y70040000D02*
X22715000Y70040000D01*
D10*
X24620000Y70040000D02*
X23350000Y71310000D01*
D10*
X27160000Y61150000D02*
X18270000Y61150000D01*
D10*
X29700000Y73850000D02*
X28430000Y72580000D01*
D10*
X27160000Y58610000D02*
X27160000Y61150000D01*
D10*
X17635000Y72580000D02*
X28430000Y72580000D01*
D10*
X18270000Y61150000D02*
X15730000Y63690000D01*
D10*
X23350000Y65595000D02*
X23985000Y64960000D01*
D10*
X18270000Y67500000D02*
X20810000Y67500000D01*
D10*
X22715000Y70040000D02*
X23350000Y69405000D01*
D10*
X14460000Y70040000D02*
X15730000Y70040000D01*
D10*
X28430000Y67500000D02*
X25890000Y67500000D01*
D10*
X29700000Y56070000D02*
X27160000Y56070000D01*
D10*
X29700000Y58610000D02*
X27160000Y58610000D01*
D10*
X52850000Y34405000D02*
X52850000Y30595000D01*
D10*
X53485000Y29960000D02*
X57930000Y29960000D01*
D10*
X51580000Y31230000D02*
X51580000Y33770000D01*
D10*
X43325000Y34405000D02*
X43960000Y35040000D01*
D10*
X54120000Y35040000D02*
X57930000Y35040000D01*
D10*
X57930000Y29960000D02*
X59200000Y28690000D01*
D10*
X57930000Y35040000D02*
X59200000Y36310000D01*
D10*
X45230000Y32500000D02*
X46500000Y33770000D01*
D10*
X47770000Y21070000D02*
X43325000Y25515000D01*
D10*
X59200000Y31230000D02*
X57930000Y32500000D01*
D10*
X46500000Y33770000D02*
X46500000Y36945000D01*
D10*
X43325000Y25515000D02*
X43325000Y34405000D01*
D10*
X59200000Y23610000D02*
X59200000Y26150000D01*
D10*
X56660000Y21070000D02*
X47770000Y21070000D01*
D10*
X52850000Y36310000D02*
X51580000Y36310000D01*
D10*
X46500000Y36945000D02*
X47135000Y37580000D01*
D10*
X45230000Y28690000D02*
X45230000Y29960000D01*
D10*
X50310000Y29960000D02*
X51580000Y31230000D01*
D10*
X47770000Y29960000D02*
X50310000Y29960000D01*
D10*
X47770000Y35040000D02*
X52215000Y35040000D01*
D10*
X54120000Y35040000D02*
X52850000Y36310000D01*
D10*
X56660000Y26150000D02*
X47770000Y26150000D01*
D10*
X59200000Y38850000D02*
X57930000Y37580000D01*
D10*
X56660000Y23610000D02*
X56660000Y26150000D01*
D10*
X47135000Y37580000D02*
X57930000Y37580000D01*
D10*
X47770000Y26150000D02*
X45230000Y28690000D01*
D10*
X52850000Y30595000D02*
X53485000Y29960000D01*
D10*
X47770000Y32500000D02*
X50310000Y32500000D01*
D10*
X52215000Y35040000D02*
X52850000Y34405000D01*
D10*
X43960000Y35040000D02*
X45230000Y35040000D01*
D10*
X57930000Y32500000D02*
X55390000Y32500000D01*
D10*
X59200000Y21070000D02*
X56660000Y21070000D01*
D10*
X59200000Y23610000D02*
X56660000Y23610000D01*
D10*
X82350000Y69405000D02*
X82350000Y65595000D01*
D10*
X82985000Y64960000D02*
X87430000Y64960000D01*
D10*
X81080000Y66230000D02*
X81080000Y68770000D01*
D10*
X72825000Y69405000D02*
X73460000Y70040000D01*
D10*
X83620000Y70040000D02*
X87430000Y70040000D01*
D10*
X87430000Y64960000D02*
X88700000Y63690000D01*
D10*
X87430000Y70040000D02*
X88700000Y71310000D01*
D10*
X74730000Y67500000D02*
X76000000Y68770000D01*
D10*
X77270000Y56070000D02*
X72825000Y60515000D01*
D10*
X88700000Y66230000D02*
X87430000Y67500000D01*
D10*
X76000000Y68770000D02*
X76000000Y71945000D01*
D10*
X72825000Y60515000D02*
X72825000Y69405000D01*
D10*
X88700000Y58610000D02*
X88700000Y61150000D01*
D10*
X86160000Y56070000D02*
X77270000Y56070000D01*
D10*
X82350000Y71310000D02*
X81080000Y71310000D01*
D10*
X76000000Y71945000D02*
X76635000Y72580000D01*
D10*
X74730000Y63690000D02*
X74730000Y64960000D01*
D10*
X79810000Y64960000D02*
X81080000Y66230000D01*
D10*
X77270000Y64960000D02*
X79810000Y64960000D01*
D10*
X77270000Y70040000D02*
X81715000Y70040000D01*
D10*
X83620000Y70040000D02*
X82350000Y71310000D01*
D10*
X86160000Y61150000D02*
X77270000Y61150000D01*
D10*
X88700000Y73850000D02*
X87430000Y72580000D01*
D10*
X86160000Y58610000D02*
X86160000Y61150000D01*
D10*
X76635000Y72580000D02*
X87430000Y72580000D01*
D10*
X77270000Y61150000D02*
X74730000Y63690000D01*
D10*
X82350000Y65595000D02*
X82985000Y64960000D01*
D10*
X77270000Y67500000D02*
X79810000Y67500000D01*
D10*
X81715000Y70040000D02*
X82350000Y69405000D01*
D10*
X73460000Y70040000D02*
X74730000Y70040000D01*
D10*
X87430000Y67500000D02*
X84890000Y67500000D01*
D10*
X88700000Y56070000D02*
X86160000Y56070000D01*
D10*
X88700000Y58610000D02*
X86160000Y58610000D01*
D10*
X23350000Y34405000D02*
X23350000Y30595000D01*
D10*
X23985000Y29960000D02*
X28430000Y29960000D01*
D10*
X22080000Y31230000D02*
X22080000Y33770000D01*
D10*
X13825000Y34405000D02*
X14460000Y35040000D01*
D10*
X24620000Y35040000D02*
X28430000Y35040000D01*
D10*
X28430000Y29960000D02*
X29700000Y28690000D01*
D10*
X28430000Y35040000D02*
X29700000Y36310000D01*
D10*
X15730000Y32500000D02*
X17000000Y33770000D01*
D10*
X18270000Y21070000D02*
X13825000Y25515000D01*
D10*
X29700000Y31230000D02*
X28430000Y32500000D01*
D10*
X17000000Y33770000D02*
X17000000Y36945000D01*
D10*
X13825000Y25515000D02*
X13825000Y34405000D01*
D10*
X29700000Y23610000D02*
X29700000Y26150000D01*
D10*
X27160000Y21070000D02*
X18270000Y21070000D01*
D10*
X23350000Y36310000D02*
X22080000Y36310000D01*
D10*
X17000000Y36945000D02*
X17635000Y37580000D01*
D10*
X15730000Y28690000D02*
X15730000Y29960000D01*
D10*
X20810000Y29960000D02*
X22080000Y31230000D01*
D10*
X18270000Y29960000D02*
X20810000Y29960000D01*
D10*
X18270000Y35040000D02*
X22715000Y35040000D01*
D10*
X24620000Y35040000D02*
X23350000Y36310000D01*
D10*
X27160000Y26150000D02*
X18270000Y26150000D01*
D10*
X29700000Y38850000D02*
X28430000Y37580000D01*
D10*
X27160000Y23610000D02*
X27160000Y26150000D01*
D10*
X17635000Y37580000D02*
X28430000Y37580000D01*
D10*
X18270000Y26150000D02*
X15730000Y28690000D01*
D10*
X23350000Y30595000D02*
X23985000Y29960000D01*
D10*
X18270000Y32500000D02*
X20810000Y32500000D01*
D10*
X22715000Y35040000D02*
X23350000Y34405000D01*
D10*
X14460000Y35040000D02*
X15730000Y35040000D01*
D10*
X28430000Y32500000D02*
X25890000Y32500000D01*
D10*
X29700000Y21070000D02*
X27160000Y21070000D01*
D10*
X29700000Y23610000D02*
X27160000Y23610000D01*
D10*
X82350000Y34405000D02*
X82350000Y30595000D01*
D10*
X82985000Y29960000D02*
X87430000Y29960000D01*
D10*
X81080000Y31230000D02*
X81080000Y33770000D01*
D10*
X72825000Y34405000D02*
X73460000Y35040000D01*
D10*
X83620000Y35040000D02*
X87430000Y35040000D01*
D10*
X87430000Y29960000D02*
X88700000Y28690000D01*
D10*
X87430000Y35040000D02*
X88700000Y36310000D01*
D10*
X74730000Y32500000D02*
X76000000Y33770000D01*
D10*
X77270000Y21070000D02*
X72825000Y25515000D01*
D10*
X88700000Y31230000D02*
X87430000Y32500000D01*
D10*
X76000000Y33770000D02*
X76000000Y36945000D01*
D10*
X72825000Y25515000D02*
X72825000Y34405000D01*
D10*
X88700000Y23610000D02*
X88700000Y26150000D01*
D10*
X86160000Y21070000D02*
X77270000Y21070000D01*
D10*
X82350000Y36310000D02*
X81080000Y36310000D01*
D10*
X76000000Y36945000D02*
X76635000Y37580000D01*
D10*
X74730000Y28690000D02*
X74730000Y29960000D01*
D10*
X79810000Y29960000D02*
X81080000Y31230000D01*
D10*
X77270000Y29960000D02*
X79810000Y29960000D01*
D10*
X77270000Y35040000D02*
X81715000Y35040000D01*
D10*
X83620000Y35040000D02*
X82350000Y36310000D01*
D10*
X86160000Y26150000D02*
X77270000Y26150000D01*
D10*
X88700000Y38850000D02*
X87430000Y37580000D01*
D10*
X86160000Y23610000D02*
X86160000Y26150000D01*
D10*
X76635000Y37580000D02*
X87430000Y37580000D01*
D10*
X77270000Y26150000D02*
X74730000Y28690000D01*
D10*
X82350000Y30595000D02*
X82985000Y29960000D01*
D10*
X77270000Y32500000D02*
X79810000Y32500000D01*
D10*
X81715000Y35040000D02*
X82350000Y34405000D01*
D10*
X73460000Y35040000D02*
X74730000Y35040000D01*
D10*
X87430000Y32500000D02*
X84890000Y32500000D01*
D10*
X88700000Y21070000D02*
X86160000Y21070000D01*
D10*
X88700000Y23610000D02*
X86160000Y23610000D01*
D10*
X52850000Y69405000D02*
X52850000Y65595000D01*
D10*
X53485000Y64960000D02*
X57930000Y64960000D01*
D10*
X51580000Y66230000D02*
X51580000Y68770000D01*
D10*
X43325000Y69405000D02*
X43960000Y70040000D01*
D10*
X54120000Y70040000D02*
X57930000Y70040000D01*
D10*
X57930000Y64960000D02*
X59200000Y63690000D01*
D10*
X57930000Y70040000D02*
X59200000Y71310000D01*
D10*
X45230000Y67500000D02*
X46500000Y68770000D01*
D10*
X47770000Y56070000D02*
X43325000Y60515000D01*
D10*
X59200000Y66230000D02*
X57930000Y67500000D01*
D10*
X46500000Y68770000D02*
X46500000Y71945000D01*
D10*
X43325000Y60515000D02*
X43325000Y69405000D01*
D10*
X59200000Y58610000D02*
X59200000Y61150000D01*
D10*
X56660000Y56070000D02*
X47770000Y56070000D01*
D10*
X52850000Y71310000D02*
X51580000Y71310000D01*
D10*
X46500000Y71945000D02*
X47135000Y72580000D01*
D10*
X45230000Y63690000D02*
X45230000Y64960000D01*
D10*
X50310000Y64960000D02*
X51580000Y66230000D01*
D10*
X47770000Y64960000D02*
X50310000Y64960000D01*
D10*
X47770000Y70040000D02*
X52215000Y70040000D01*
D10*
X54120000Y70040000D02*
X52850000Y71310000D01*
D10*
X56660000Y61150000D02*
X47770000Y61150000D01*
D10*
X59200000Y73850000D02*
X57930000Y72580000D01*
D10*
X56660000Y58610000D02*
X56660000Y61150000D01*
D10*
X47135000Y72580000D02*
X57930000Y72580000D01*
D10*
X47770000Y61150000D02*
X45230000Y63690000D01*
D10*
X52850000Y65595000D02*
X53485000Y64960000D01*
D10*
X47770000Y67500000D02*
X50310000Y67500000D01*
D10*
X52215000Y70040000D02*
X52850000Y69405000D01*
D10*
X43960000Y70040000D02*
X45230000Y70040000D01*
D10*
X57930000Y67500000D02*
X55390000Y67500000D01*
D10*
X59200000Y56070000D02*
X56660000Y56070000D01*
D10*
X59200000Y58610000D02*
X56660000Y58610000D01*
G75*
D11*
X29700000Y78930000D03*
D11*
X29700000Y71310000D03*
D11*
X27160000Y71310000D03*
D11*
X27160000Y73850000D03*
D11*
X29700000Y63690000D03*
D11*
X29700000Y58610000D03*
D11*
X29700000Y73850000D03*
D11*
X29700000Y66230000D03*
D11*
X27160000Y58610000D03*
D11*
X27160000Y66230000D03*
D11*
X27160000Y78930000D03*
D11*
X29700000Y68770000D03*
D11*
X27160000Y68770000D03*
D11*
X29700000Y61150000D03*
D11*
X27160000Y56070000D03*
D11*
X29700000Y76390000D03*
D11*
X27160000Y61150000D03*
D11*
X29700000Y56070000D03*
D11*
X27160000Y76390000D03*
D11*
X27160000Y63690000D03*
D12*
X18270000Y67500000D03*
D12*
X15730000Y70040000D03*
D12*
X18270000Y70040000D03*
D12*
X15730000Y64960000D03*
D12*
X15730000Y67500000D03*
D12*
X18270000Y64960000D03*
D13*
X20810000Y67500000D03*
D13*
X22080000Y71310000D03*
D13*
X22080000Y68770000D03*
D13*
X25890000Y67500000D03*
D11*
X59200000Y43930000D03*
D11*
X59200000Y36310000D03*
D11*
X56660000Y36310000D03*
D11*
X56660000Y38850000D03*
D11*
X59200000Y28690000D03*
D11*
X59200000Y23610000D03*
D11*
X59200000Y38850000D03*
D11*
X59200000Y31230000D03*
D11*
X56660000Y23610000D03*
D11*
X56660000Y31230000D03*
D11*
X56660000Y43930000D03*
D11*
X59200000Y33770000D03*
D11*
X56660000Y33770000D03*
D11*
X59200000Y26150000D03*
D11*
X56660000Y21070000D03*
D11*
X59200000Y41390000D03*
D11*
X56660000Y26150000D03*
D11*
X59200000Y21070000D03*
D11*
X56660000Y41390000D03*
D11*
X56660000Y28690000D03*
D12*
X47770000Y32500000D03*
D12*
X45230000Y35040000D03*
D12*
X47770000Y35040000D03*
D12*
X45230000Y29960000D03*
D12*
X45230000Y32500000D03*
D12*
X47770000Y29960000D03*
D13*
X50310000Y32500000D03*
D13*
X51580000Y36310000D03*
D13*
X51580000Y33770000D03*
D13*
X55390000Y32500000D03*
D11*
X88700000Y78930000D03*
D11*
X88700000Y71310000D03*
D11*
X86160000Y71310000D03*
D11*
X86160000Y73850000D03*
D11*
X88700000Y63690000D03*
D11*
X88700000Y58610000D03*
D11*
X88700000Y73850000D03*
D11*
X88700000Y66230000D03*
D11*
X86160000Y58610000D03*
D11*
X86160000Y66230000D03*
D11*
X86160000Y78930000D03*
D11*
X88700000Y68770000D03*
D11*
X86160000Y68770000D03*
D11*
X88700000Y61150000D03*
D11*
X86160000Y56070000D03*
D11*
X88700000Y76390000D03*
D11*
X86160000Y61150000D03*
D11*
X88700000Y56070000D03*
D11*
X86160000Y76390000D03*
D11*
X86160000Y63690000D03*
D12*
X77270000Y67500000D03*
D12*
X74730000Y70040000D03*
D12*
X77270000Y70040000D03*
D12*
X74730000Y64960000D03*
D12*
X74730000Y67500000D03*
D12*
X77270000Y64960000D03*
D13*
X79810000Y67500000D03*
D13*
X81080000Y71310000D03*
D13*
X81080000Y68770000D03*
D13*
X84890000Y67500000D03*
D11*
X29700000Y43930000D03*
D11*
X29700000Y36310000D03*
D11*
X27160000Y36310000D03*
D11*
X27160000Y38850000D03*
D11*
X29700000Y28690000D03*
D11*
X29700000Y23610000D03*
D11*
X29700000Y38850000D03*
D11*
X29700000Y31230000D03*
D11*
X27160000Y23610000D03*
D11*
X27160000Y31230000D03*
D11*
X27160000Y43930000D03*
D11*
X29700000Y33770000D03*
D11*
X27160000Y33770000D03*
D11*
X29700000Y26150000D03*
D11*
X27160000Y21070000D03*
D11*
X29700000Y41390000D03*
D11*
X27160000Y26150000D03*
D11*
X29700000Y21070000D03*
D11*
X27160000Y41390000D03*
D11*
X27160000Y28690000D03*
D12*
X18270000Y32500000D03*
D12*
X15730000Y35040000D03*
D12*
X18270000Y35040000D03*
D12*
X15730000Y29960000D03*
D12*
X15730000Y32500000D03*
D12*
X18270000Y29960000D03*
D13*
X20810000Y32500000D03*
D13*
X22080000Y36310000D03*
D13*
X22080000Y33770000D03*
D13*
X25890000Y32500000D03*
D11*
X88700000Y43930000D03*
D11*
X88700000Y36310000D03*
D11*
X86160000Y36310000D03*
D11*
X86160000Y38850000D03*
D11*
X88700000Y28690000D03*
D11*
X88700000Y23610000D03*
D11*
X88700000Y38850000D03*
D11*
X88700000Y31230000D03*
D11*
X86160000Y23610000D03*
D11*
X86160000Y31230000D03*
D11*
X86160000Y43930000D03*
D11*
X88700000Y33770000D03*
D11*
X86160000Y33770000D03*
D11*
X88700000Y26150000D03*
D11*
X86160000Y21070000D03*
D11*
X88700000Y41390000D03*
D11*
X86160000Y26150000D03*
D11*
X88700000Y21070000D03*
D11*
X86160000Y41390000D03*
D11*
X86160000Y28690000D03*
D12*
X77270000Y32500000D03*
D12*
X74730000Y35040000D03*
D12*
X77270000Y35040000D03*
D12*
X74730000Y29960000D03*
D12*
X74730000Y32500000D03*
D12*
X77270000Y29960000D03*
D13*
X79810000Y32500000D03*
D13*
X81080000Y36310000D03*
D13*
X81080000Y33770000D03*
D13*
X84890000Y32500000D03*
D11*
X59200000Y78930000D03*
D11*
X59200000Y71310000D03*
D11*
X56660000Y71310000D03*
D11*
X56660000Y73850000D03*
D11*
X59200000Y63690000D03*
D11*
X59200000Y58610000D03*
D11*
X59200000Y73850000D03*
D11*
X59200000Y66230000D03*
D11*
X56660000Y58610000D03*
D11*
X56660000Y66230000D03*
D11*
X56660000Y78930000D03*
D11*
X59200000Y68770000D03*
D11*
X56660000Y68770000D03*
D11*
X59200000Y61150000D03*
D11*
X56660000Y56070000D03*
D11*
X59200000Y76390000D03*
D11*
X56660000Y61150000D03*
D11*
X59200000Y56070000D03*
D11*
X56660000Y76390000D03*
D11*
X56660000Y63690000D03*
D12*
X47770000Y67500000D03*
D12*
X45230000Y70040000D03*
D12*
X47770000Y70040000D03*
D12*
X45230000Y64960000D03*
D12*
X45230000Y67500000D03*
D12*
X47770000Y64960000D03*
D13*
X50310000Y67500000D03*
D13*
X51580000Y71310000D03*
D13*
X51580000Y68770000D03*
D13*
X55390000Y67500000D03*
M02*
