M48
FMAT,2
METRIC,TZ
T3C0.350
T2C1.000
T1C1.020
%
G90
G05
M71
T3
X20.810Y67.500
X22.080Y71.310
X22.080Y68.770
X25.890Y67.500
X50.310Y32.500
X51.580Y36.310
X51.580Y33.770
X55.390Y32.500
X79.810Y67.500
X81.080Y71.310
X81.080Y68.770
X84.890Y67.500
X20.810Y32.500
X22.080Y36.310
X22.080Y33.770
X25.890Y32.500
X79.810Y32.500
X81.080Y36.310
X81.080Y33.770
X84.890Y32.500
X50.310Y67.500
X51.580Y71.310
X51.580Y68.770
X55.390Y67.500
T2
X18.270Y67.500
X15.730Y70.040
X18.270Y70.040
X15.730Y64.960
X15.730Y67.500
X18.270Y64.960
X47.770Y32.500
X45.230Y35.040
X47.770Y35.040
X45.230Y29.960
X45.230Y32.500
X47.770Y29.960
X77.270Y67.500
X74.730Y70.040
X77.270Y70.040
X74.730Y64.960
X74.730Y67.500
X77.270Y64.960
X18.270Y32.500
X15.730Y35.040
X18.270Y35.040
X15.730Y29.960
X15.730Y32.500
X18.270Y29.960
X77.270Y32.500
X74.730Y35.040
X77.270Y35.040
X74.730Y29.960
X74.730Y32.500
X77.270Y29.960
X47.770Y67.500
X45.230Y70.040
X47.770Y70.040
X45.230Y64.960
X45.230Y67.500
X47.770Y64.960
T1
X29.700Y78.930
X29.700Y71.310
X27.160Y71.310
X27.160Y73.850
X29.700Y63.690
X29.700Y58.610
X29.700Y73.850
X29.700Y66.230
X27.160Y58.610
X27.160Y66.230
X27.160Y78.930
X29.700Y68.770
X27.160Y68.770
X29.700Y61.150
X27.160Y56.070
X29.700Y76.390
X27.160Y61.150
X29.700Y56.070
X27.160Y76.390
X27.160Y63.690
X59.200Y43.930
X59.200Y36.310
X56.660Y36.310
X56.660Y38.850
X59.200Y28.690
X59.200Y23.610
X59.200Y38.850
X59.200Y31.230
X56.660Y23.610
X56.660Y31.230
X56.660Y43.930
X59.200Y33.770
X56.660Y33.770
X59.200Y26.150
X56.660Y21.070
X59.200Y41.390
X56.660Y26.150
X59.200Y21.070
X56.660Y41.390
X56.660Y28.690
X88.700Y78.930
X88.700Y71.310
X86.160Y71.310
X86.160Y73.850
X88.700Y63.690
X88.700Y58.610
X88.700Y73.850
X88.700Y66.230
X86.160Y58.610
X86.160Y66.230
X86.160Y78.930
X88.700Y68.770
X86.160Y68.770
X88.700Y61.150
X86.160Y56.070
X88.700Y76.390
X86.160Y61.150
X88.700Y56.070
X86.160Y76.390
X86.160Y63.690
X29.700Y43.930
X29.700Y36.310
X27.160Y36.310
X27.160Y38.850
X29.700Y28.690
X29.700Y23.610
X29.700Y38.850
X29.700Y31.230
X27.160Y23.610
X27.160Y31.230
X27.160Y43.930
X29.700Y33.770
X27.160Y33.770
X29.700Y26.150
X27.160Y21.070
X29.700Y41.390
X27.160Y26.150
X29.700Y21.070
X27.160Y41.390
X27.160Y28.690
X88.700Y43.930
X88.700Y36.310
X86.160Y36.310
X86.160Y38.850
X88.700Y28.690
X88.700Y23.610
X88.700Y38.850
X88.700Y31.230
X86.160Y23.610
X86.160Y31.230
X86.160Y43.930
X88.700Y33.770
X86.160Y33.770
X88.700Y26.150
X86.160Y21.070
X88.700Y41.390
X86.160Y26.150
X88.700Y21.070
X86.160Y41.390
X86.160Y28.690
X59.200Y78.930
X59.200Y71.310
X56.660Y71.310
X56.660Y73.850
X59.200Y63.690
X59.200Y58.610
X59.200Y73.850
X59.200Y66.230
X56.660Y58.610
X56.660Y66.230
X56.660Y78.930
X59.200Y68.770
X56.660Y68.770
X59.200Y61.150
X56.660Y56.070
X59.200Y76.390
X56.660Y61.150
X59.200Y56.070
X56.660Y76.390
X56.660Y63.690
M30
