%FSLAX46Y46*%
%MOMM*%
%ADD10C,0.150000*%
%ADD11C,0.300000*%
G01*
%LPD*%
G01*
%LPD*%
D10*
X7961428Y-11001429D02*
X7890000Y-10930000D01*
D10*
X7890000Y-11072857D02*
X7961428Y-11001429D01*
D10*
X7818571Y-11001429D02*
X7890000Y-11072857D01*
D10*
X7818571Y-10930000D02*
X7818571Y-11001429D01*
D10*
X7890000Y-10787143D02*
X7818571Y-10930000D01*
D10*
X7961428Y-10715714D02*
X7890000Y-10787143D01*
D10*
X8175714Y-10644286D02*
X7961428Y-10715714D01*
D10*
X8390000Y-10644286D02*
X8175714Y-10644286D01*
D10*
X8604286Y-10715714D02*
X8390000Y-10644286D01*
D10*
X8675714Y-10858571D02*
X8604286Y-10715714D01*
D10*
X8675714Y-11001429D02*
X8675714Y-10858571D01*
D10*
X8604286Y-11144286D02*
X8675714Y-11001429D01*
D10*
X8461429Y-11287143D02*
X8604286Y-11144286D01*
D10*
X8247143Y-11430000D02*
X8461429Y-11287143D01*
D10*
X7961428Y-11572857D02*
X8247143Y-11430000D01*
D10*
X7747143Y-11715714D02*
X7961428Y-11572857D01*
D10*
X7604286Y-11858571D02*
X7747143Y-11715714D01*
D10*
X7461428Y-12144286D02*
X7604286Y-11858571D01*
D10*
X8532857Y-10715714D02*
X8390000Y-10644286D01*
D10*
X8604286Y-10858571D02*
X8532857Y-10715714D01*
D10*
X8604286Y-11001429D02*
X8604286Y-10858571D01*
D10*
X8532857Y-11144286D02*
X8604286Y-11001429D01*
D10*
X8390000Y-11287143D02*
X8532857Y-11144286D01*
D10*
X7961428Y-11572857D02*
X8390000Y-11287143D01*
D10*
X7604286Y-11930000D02*
X7532857Y-12001429D01*
D10*
X7747143Y-11930000D02*
X7604286Y-11930000D01*
D10*
X8104286Y-12072857D02*
X7747143Y-11930000D01*
D10*
X8318571Y-12072857D02*
X8104286Y-12072857D01*
D10*
X8461429Y-12001429D02*
X8318571Y-12072857D01*
D10*
X8532857Y-11858571D02*
X8461429Y-12001429D01*
D10*
X8104286Y-12144286D02*
X7747143Y-11930000D01*
D10*
X8318571Y-12144286D02*
X8104286Y-12144286D01*
D10*
X8461429Y-12072857D02*
X8318571Y-12144286D01*
D10*
X8532857Y-11858571D02*
X8461429Y-12072857D01*
D10*
X14470000Y-12144286D02*
X14827143Y-10930000D01*
D10*
X14541429Y-12144286D02*
X14970000Y-10644286D01*
D10*
X14755714Y-10858571D02*
X14970000Y-10644286D01*
D10*
X14541429Y-11001429D02*
X14755714Y-10858571D01*
D10*
X14398571Y-11072857D02*
X14541429Y-11001429D01*
D10*
X14612857Y-11001429D02*
X14898571Y-10858571D01*
D10*
X14398571Y-11072857D02*
X14612857Y-11001429D01*
D10*
X5222857Y2063809D02*
X5508571Y3063809D01*
D10*
X5270476Y2063809D02*
X5556190Y3063809D01*
D10*
X5794285Y3063809D02*
X5365714Y3063809D01*
D10*
X5937143Y3016190D02*
X5794285Y3063809D01*
D10*
X5984762Y2968571D02*
X5937143Y3016190D01*
D10*
X6032381Y2825714D02*
X5984762Y2968571D01*
D10*
X6032381Y2635238D02*
X6032381Y2825714D01*
D10*
X5984762Y2444762D02*
X6032381Y2635238D01*
D10*
X5889524Y2254285D02*
X5984762Y2444762D01*
D10*
X5794285Y2159047D02*
X5889524Y2254285D01*
D10*
X5699047Y2111428D02*
X5794285Y2159047D01*
D10*
X5508571Y2063809D02*
X5699047Y2111428D01*
D10*
X5080000Y2063809D02*
X5508571Y2063809D01*
D10*
X5889524Y3016190D02*
X5794285Y3063809D01*
D10*
X5937143Y2968571D02*
X5889524Y3016190D01*
D10*
X5984762Y2825714D02*
X5937143Y2968571D01*
D10*
X5984762Y2635238D02*
X5984762Y2825714D01*
D10*
X5937143Y2444762D02*
X5984762Y2635238D01*
D10*
X5841905Y2254285D02*
X5937143Y2444762D01*
D10*
X5746666Y2159047D02*
X5841905Y2254285D01*
D10*
X5651428Y2111428D02*
X5746666Y2159047D01*
D10*
X5508571Y2063809D02*
X5651428Y2111428D01*
D10*
X6318095Y2063809D02*
X6603809Y3063809D01*
D10*
X6365714Y2063809D02*
X6651428Y3063809D01*
D10*
X6794286Y3063809D02*
X6460952Y3063809D01*
D10*
X6508571Y2063809D02*
X6175238Y2063809D01*
D10*
X7222857Y3016190D02*
X7365714Y3063809D01*
D10*
X7127619Y2920952D02*
X7222857Y3016190D01*
D10*
X7032381Y2778095D02*
X7127619Y2920952D01*
D10*
X6984762Y2635238D02*
X7032381Y2778095D01*
D10*
X6937143Y2444762D02*
X6984762Y2635238D01*
D10*
X6937143Y2301904D02*
X6937143Y2444762D01*
D10*
X6984762Y2159047D02*
X6937143Y2301904D01*
D10*
X7032381Y2111428D02*
X6984762Y2159047D01*
D10*
X7127619Y2063809D02*
X7032381Y2111428D01*
D10*
X7270476Y2063809D02*
X7127619Y2063809D01*
D10*
X7413333Y2111428D02*
X7270476Y2063809D01*
D10*
X7508571Y2206666D02*
X7413333Y2111428D01*
D10*
X7603809Y2349523D02*
X7508571Y2206666D01*
D10*
X7651428Y2492381D02*
X7603809Y2349523D01*
D10*
X7699047Y2682857D02*
X7651428Y2492381D01*
D10*
X7699047Y2825714D02*
X7699047Y2682857D01*
D10*
X7651428Y2968571D02*
X7699047Y2825714D01*
D10*
X7603809Y3016190D02*
X7651428Y2968571D01*
D10*
X7508571Y3063809D02*
X7603809Y3016190D01*
D10*
X7365714Y3063809D02*
X7508571Y3063809D01*
D10*
X7270476Y3016190D02*
X7365714Y3063809D01*
D10*
X7175238Y2920952D02*
X7270476Y3016190D01*
D10*
X7080000Y2778095D02*
X7175238Y2920952D01*
D10*
X7032381Y2635238D02*
X7080000Y2778095D01*
D10*
X6984762Y2444762D02*
X7032381Y2635238D01*
D10*
X6984762Y2301904D02*
X6984762Y2444762D01*
D10*
X7032381Y2159047D02*
X6984762Y2301904D01*
D10*
X7127619Y2063809D02*
X7032381Y2159047D01*
D10*
X7365714Y2111428D02*
X7270476Y2063809D01*
D10*
X7460952Y2206666D02*
X7365714Y2111428D01*
D10*
X7556190Y2349523D02*
X7460952Y2206666D01*
D10*
X7603809Y2492381D02*
X7556190Y2349523D01*
D10*
X7651428Y2682857D02*
X7603809Y2492381D01*
D10*
X7651428Y2825714D02*
X7651428Y2682857D01*
D10*
X7603809Y2968571D02*
X7651428Y2825714D01*
D10*
X7508571Y3063809D02*
X7603809Y2968571D01*
D10*
X14470000Y10715714D02*
X14827143Y11930000D01*
D10*
X14541429Y10715714D02*
X14970000Y12215714D01*
D10*
X14755714Y12001429D02*
X14970000Y12215714D01*
D10*
X14541429Y11858571D02*
X14755714Y12001429D01*
D10*
X14398571Y11787143D02*
X14541429Y11858571D01*
D10*
X14612857Y11858571D02*
X14898571Y12001429D01*
D10*
X14398571Y11787143D02*
X14612857Y11858571D01*
D10*
X16612857Y11572857D02*
X16684286Y11715714D01*
D10*
X16470000Y11430000D02*
X16612857Y11572857D01*
D10*
X16327143Y11358571D02*
X16470000Y11430000D01*
D10*
X16112857Y11358571D02*
X16327143Y11358571D01*
D10*
X15970000Y11430000D02*
X16112857Y11358571D01*
D10*
X15898571Y11501429D02*
X15970000Y11430000D01*
D10*
X15827143Y11644286D02*
X15898571Y11501429D01*
D10*
X15827143Y11858571D02*
X15827143Y11644286D01*
D10*
X15898571Y12001429D02*
X15827143Y11858571D01*
D10*
X16041428Y12144286D02*
X15898571Y12001429D01*
D10*
X16255714Y12215714D02*
X16041428Y12144286D01*
D10*
X16470000Y12215714D02*
X16255714Y12215714D01*
D10*
X16612857Y12144286D02*
X16470000Y12215714D01*
D10*
X16684286Y12072857D02*
X16612857Y12144286D01*
D10*
X16755714Y11930000D02*
X16684286Y12072857D01*
D10*
X16755714Y11644286D02*
X16755714Y11930000D01*
D10*
X16684286Y11358571D02*
X16755714Y11644286D01*
D10*
X16612857Y11144286D02*
X16684286Y11358571D01*
D10*
X16470000Y10930000D02*
X16612857Y11144286D01*
D10*
X16327143Y10787143D02*
X16470000Y10930000D01*
D10*
X16112857Y10715714D02*
X16327143Y10787143D01*
D10*
X15898571Y10715714D02*
X16112857Y10715714D01*
D10*
X15755714Y10787143D02*
X15898571Y10715714D01*
D10*
X15684286Y10930000D02*
X15755714Y10787143D01*
D10*
X15684286Y11001429D02*
X15684286Y10930000D01*
D10*
X15755714Y11072857D02*
X15684286Y11001429D01*
D10*
X15827143Y11001429D02*
X15755714Y11072857D01*
D10*
X15755714Y10930000D02*
X15827143Y11001429D01*
D10*
X15898571Y11572857D02*
X15970000Y11430000D01*
D10*
X15898571Y11858571D02*
X15898571Y11572857D01*
D10*
X15970000Y12001429D02*
X15898571Y11858571D01*
D10*
X16112857Y12144286D02*
X15970000Y12001429D01*
D10*
X16255714Y12215714D02*
X16112857Y12144286D01*
D10*
X16684286Y12001429D02*
X16612857Y12144286D01*
D10*
X16684286Y11644286D02*
X16684286Y12001429D01*
D10*
X16612857Y11358571D02*
X16684286Y11644286D01*
D10*
X16541428Y11144286D02*
X16612857Y11358571D01*
D10*
X16398572Y10930000D02*
X16541428Y11144286D01*
D10*
X16255714Y10787143D02*
X16398572Y10930000D01*
D10*
X16112857Y10715714D02*
X16255714Y10787143D01*
D10*
X5984762Y428571D02*
X5937143Y428571D01*
D10*
X6032381Y523809D02*
X5984762Y428571D01*
D10*
X5984762Y238095D02*
X6032381Y523809D01*
D10*
X5984762Y333333D02*
X5984762Y238095D01*
D10*
X5937143Y428571D02*
X5984762Y333333D01*
D10*
X5889524Y476190D02*
X5937143Y428571D01*
D10*
X5794285Y523809D02*
X5889524Y476190D01*
D10*
X5651428Y523809D02*
X5794285Y523809D01*
D10*
X5508571Y476190D02*
X5651428Y523809D01*
D10*
X5413333Y380952D02*
X5508571Y476190D01*
D10*
X5318095Y238095D02*
X5413333Y380952D01*
D10*
X5270476Y95238D02*
X5318095Y238095D01*
D10*
X5222857Y-95238D02*
X5270476Y95238D01*
D10*
X5222857Y-238095D02*
X5222857Y-95238D01*
D10*
X5270476Y-380952D02*
X5222857Y-238095D01*
D10*
X5318095Y-428571D02*
X5270476Y-380952D01*
D10*
X5460952Y-476190D02*
X5318095Y-428571D01*
D10*
X5603809Y-476190D02*
X5460952Y-476190D01*
D10*
X5699047Y-428571D02*
X5603809Y-476190D01*
D10*
X5794285Y-333333D02*
X5699047Y-428571D01*
D10*
X5841905Y-238095D02*
X5794285Y-333333D01*
D10*
X5556190Y476190D02*
X5651428Y523809D01*
D10*
X5460952Y380952D02*
X5556190Y476190D01*
D10*
X5365714Y238095D02*
X5460952Y380952D01*
D10*
X5318095Y95238D02*
X5365714Y238095D01*
D10*
X5270476Y-95238D02*
X5318095Y95238D01*
D10*
X5270476Y-238095D02*
X5270476Y-95238D01*
D10*
X5318095Y-380952D02*
X5270476Y-238095D01*
D10*
X5365714Y-428571D02*
X5318095Y-380952D01*
D10*
X5460952Y-476190D02*
X5365714Y-428571D01*
D10*
X6222857Y-476190D02*
X6508571Y523809D01*
D10*
X6270476Y-476190D02*
X6556190Y523809D01*
D10*
X6699047Y523809D02*
X6365714Y523809D01*
D10*
X6794286Y-476190D02*
X6080000Y-476190D01*
D10*
X6889524Y-190476D02*
X6794286Y-476190D01*
D10*
X6746666Y-476190D02*
X6889524Y-190476D01*
D10*
X7175238Y-476190D02*
X7460952Y523809D01*
D10*
X7222857Y-476190D02*
X7508571Y523809D01*
D10*
X7318095Y-95238D02*
X8127619Y523809D01*
D10*
X7841905Y-476190D02*
X7651428Y95238D01*
D10*
X7794286Y-476190D02*
X7603809Y95238D01*
D10*
X7651428Y523809D02*
X7318095Y523809D01*
D10*
X8222857Y523809D02*
X7937143Y523809D01*
D10*
X7365714Y-476190D02*
X7032381Y-476190D01*
D10*
X7937143Y-476190D02*
X7651428Y-476190D01*
D10*
X-7508571Y-2111428D02*
X-7556190Y-2111428D01*
D10*
X-7460952Y-2016190D02*
X-7508571Y-2111428D01*
D10*
X-7508571Y-2301904D02*
X-7460952Y-2016190D01*
D10*
X-7508571Y-2206666D02*
X-7508571Y-2301904D01*
D10*
X-7556190Y-2111428D02*
X-7508571Y-2206666D01*
D10*
X-7603809Y-2063809D02*
X-7556190Y-2111428D01*
D10*
X-7699047Y-2016190D02*
X-7603809Y-2063809D01*
D10*
X-7841905Y-2016190D02*
X-7699047Y-2016190D01*
D10*
X-7984762Y-2063809D02*
X-7841905Y-2016190D01*
D10*
X-8080000Y-2159047D02*
X-7984762Y-2063809D01*
D10*
X-8175238Y-2301904D02*
X-8080000Y-2159047D01*
D10*
X-8222857Y-2444762D02*
X-8175238Y-2301904D01*
D10*
X-8270476Y-2635238D02*
X-8222857Y-2444762D01*
D10*
X-8270476Y-2778095D02*
X-8270476Y-2635238D01*
D10*
X-8222857Y-2920952D02*
X-8270476Y-2778095D01*
D10*
X-8175238Y-2968571D02*
X-8222857Y-2920952D01*
D10*
X-8032381Y-3016190D02*
X-8175238Y-2968571D01*
D10*
X-7937143Y-3016190D02*
X-8032381Y-3016190D01*
D10*
X-7794286Y-2968571D02*
X-7937143Y-3016190D01*
D10*
X-7699047Y-2873333D02*
X-7794286Y-2968571D01*
D10*
X-7603809Y-2682857D02*
X-7699047Y-2873333D01*
D10*
X-7937143Y-2063809D02*
X-7841905Y-2016190D01*
D10*
X-8032381Y-2159047D02*
X-7937143Y-2063809D01*
D10*
X-8127619Y-2301904D02*
X-8032381Y-2159047D01*
D10*
X-8175238Y-2444762D02*
X-8127619Y-2301904D01*
D10*
X-8222857Y-2635238D02*
X-8175238Y-2444762D01*
D10*
X-8222857Y-2778095D02*
X-8222857Y-2635238D01*
D10*
X-8175238Y-2920952D02*
X-8222857Y-2778095D01*
D10*
X-8127619Y-2968571D02*
X-8175238Y-2920952D01*
D10*
X-8032381Y-3016190D02*
X-8127619Y-2968571D01*
D10*
X-7841905Y-2968571D02*
X-7937143Y-3016190D01*
D10*
X-7746666Y-2873333D02*
X-7841905Y-2968571D01*
D10*
X-7651428Y-2682857D02*
X-7746666Y-2873333D01*
D10*
X-7460952Y-2682857D02*
X-7794286Y-2682857D01*
D10*
X-7222857Y-3016190D02*
X-6937143Y-2016190D01*
D10*
X-6603809Y-2873333D02*
X-6937143Y-2016190D01*
D10*
X-6603809Y-3016190D02*
X-6937143Y-2159047D01*
D10*
X-6603809Y-3016190D02*
X-6318095Y-2016190D01*
D10*
X-6937143Y-2016190D02*
X-7080000Y-2016190D01*
D10*
X-6175238Y-2016190D02*
X-6460952Y-2016190D01*
D10*
X-7080000Y-3016190D02*
X-7365714Y-3016190D01*
D10*
X-6032381Y-3016190D02*
X-5746666Y-2016190D01*
D10*
X-5984762Y-3016190D02*
X-5699047Y-2016190D01*
D10*
X-5460952Y-2016190D02*
X-5889524Y-2016190D01*
D10*
X-5318095Y-2063809D02*
X-5460952Y-2016190D01*
D10*
X-5270476Y-2111428D02*
X-5318095Y-2063809D01*
D10*
X-5222857Y-2254285D02*
X-5270476Y-2111428D01*
D10*
X-5222857Y-2444762D02*
X-5222857Y-2254285D01*
D10*
X-5270476Y-2635238D02*
X-5222857Y-2444762D01*
D10*
X-5365714Y-2825714D02*
X-5270476Y-2635238D01*
D10*
X-5460952Y-2920952D02*
X-5365714Y-2825714D01*
D10*
X-5556190Y-2968571D02*
X-5460952Y-2920952D01*
D10*
X-5746666Y-3016190D02*
X-5556190Y-2968571D01*
D10*
X-6175238Y-3016190D02*
X-5746666Y-3016190D01*
D10*
X-5365714Y-2063809D02*
X-5460952Y-2016190D01*
D10*
X-5318095Y-2111428D02*
X-5365714Y-2063809D01*
D10*
X-5270476Y-2254285D02*
X-5318095Y-2111428D01*
D10*
X-5270476Y-2444762D02*
X-5270476Y-2254285D01*
D10*
X-5318095Y-2635238D02*
X-5270476Y-2444762D01*
D10*
X-5413333Y-2825714D02*
X-5318095Y-2635238D01*
D10*
X-5508571Y-2920952D02*
X-5413333Y-2825714D01*
D10*
X-5603809Y-2968571D02*
X-5508571Y-2920952D01*
D10*
X-5746666Y-3016190D02*
X-5603809Y-2968571D01*
D10*
X-8175238Y-476190D02*
X-7889524Y523809D01*
D10*
X-8127619Y-476190D02*
X-7841905Y523809D01*
D10*
X-7508571Y523809D02*
X-8032381Y523809D01*
D10*
X-7365714Y476190D02*
X-7508571Y523809D01*
D10*
X-7318095Y380952D02*
X-7365714Y476190D01*
D10*
X-7318095Y285714D02*
X-7318095Y380952D01*
D10*
X-7365714Y142857D02*
X-7318095Y285714D01*
D10*
X-7413333Y95238D02*
X-7365714Y142857D01*
D10*
X-7556190Y47619D02*
X-7413333Y95238D01*
D10*
X-7984762Y47619D02*
X-7556190Y47619D01*
D10*
X-7413333Y476190D02*
X-7508571Y523809D01*
D10*
X-7365714Y380952D02*
X-7413333Y476190D01*
D10*
X-7365714Y285714D02*
X-7365714Y380952D01*
D10*
X-7413333Y142857D02*
X-7365714Y285714D01*
D10*
X-7460952Y95238D02*
X-7413333Y142857D01*
D10*
X-7556190Y47619D02*
X-7460952Y95238D01*
D10*
X-7651428Y0D02*
X-7746666Y47619D01*
D10*
X-7603809Y-47619D02*
X-7651428Y0D01*
D10*
X-7556190Y-428571D02*
X-7603809Y-47619D01*
D10*
X-7508571Y-476190D02*
X-7556190Y-428571D01*
D10*
X-7413333Y-476190D02*
X-7508571Y-476190D01*
D10*
X-7365714Y-380952D02*
X-7413333Y-476190D01*
D10*
X-7365714Y-333333D02*
X-7365714Y-380952D01*
D10*
X-7508571Y-380952D02*
X-7603809Y-47619D01*
D10*
X-7460952Y-428571D02*
X-7508571Y-380952D01*
D10*
X-7413333Y-428571D02*
X-7460952Y-428571D01*
D10*
X-7365714Y-380952D02*
X-7413333Y-428571D01*
D10*
X-7984762Y-476190D02*
X-8318095Y-476190D01*
D10*
X-6222857Y428571D02*
X-6270476Y428571D01*
D10*
X-6175238Y523809D02*
X-6222857Y428571D01*
D10*
X-6222857Y238095D02*
X-6175238Y523809D01*
D10*
X-6222857Y333333D02*
X-6222857Y238095D01*
D10*
X-6270476Y428571D02*
X-6222857Y333333D01*
D10*
X-6318095Y476190D02*
X-6270476Y428571D01*
D10*
X-6460952Y523809D02*
X-6318095Y476190D01*
D10*
X-6651428Y523809D02*
X-6460952Y523809D01*
D10*
X-6794286Y476190D02*
X-6651428Y523809D01*
D10*
X-6889524Y380952D02*
X-6794286Y476190D01*
D10*
X-6889524Y285714D02*
X-6889524Y380952D01*
D10*
X-6841905Y190476D02*
X-6889524Y285714D01*
D10*
X-6794286Y142857D02*
X-6841905Y190476D01*
D10*
X-6460952Y-47619D02*
X-6794286Y142857D01*
D10*
X-6365714Y-142857D02*
X-6460952Y-47619D01*
D10*
X-6794286Y190476D02*
X-6889524Y285714D01*
D10*
X-6460952Y0D02*
X-6794286Y190476D01*
D10*
X-6413333Y-47619D02*
X-6460952Y0D01*
D10*
X-6365714Y-142857D02*
X-6413333Y-47619D01*
D10*
X-6365714Y-285714D02*
X-6365714Y-142857D01*
D10*
X-6413333Y-380952D02*
X-6365714Y-285714D01*
D10*
X-6460952Y-428571D02*
X-6413333Y-380952D01*
D10*
X-6603809Y-476190D02*
X-6460952Y-428571D01*
D10*
X-6794286Y-476190D02*
X-6603809Y-476190D01*
D10*
X-6937143Y-428571D02*
X-6794286Y-476190D01*
D10*
X-6984762Y-380952D02*
X-6937143Y-428571D01*
D10*
X-7032381Y-285714D02*
X-6984762Y-380952D01*
D10*
X-7032381Y-190476D02*
X-7032381Y-285714D01*
D10*
X-7080000Y-476190D02*
X-7032381Y-190476D01*
D10*
X-7032381Y-380952D02*
X-7080000Y-476190D01*
D10*
X-6984762Y-380952D02*
X-7032381Y-380952D01*
D10*
X-5746666Y-476190D02*
X-5460952Y523809D01*
D10*
X-5699047Y-476190D02*
X-5413333Y523809D01*
D10*
X-5889524Y238095D02*
X-5746666Y523809D01*
D10*
X-5794285Y523809D02*
X-5889524Y238095D01*
D10*
X-5080000Y523809D02*
X-5794285Y523809D01*
D10*
X-5127619Y238095D02*
X-5080000Y523809D01*
D10*
X-5127619Y523809D02*
X-5127619Y238095D01*
D10*
X-5556190Y-476190D02*
X-5889524Y-476190D01*
D11*
X-2059523Y-11194524D02*
X-2154762Y-11385000D01*
D11*
X-1869047Y-11004048D02*
X-2059523Y-11194524D01*
D11*
X-1583333Y-11004048D02*
X-1869047Y-11004048D01*
D11*
X-1488095Y-11099286D02*
X-1583333Y-11004048D01*
D11*
X-1488095Y-11289762D02*
X-1488095Y-11099286D01*
D11*
X-1583333Y-11670714D02*
X-1488095Y-11289762D01*
D11*
X-1773809Y-12337381D02*
X-1583333Y-11670714D01*
D11*
X-1583333Y-11099286D02*
X-1678571Y-11004048D01*
D11*
X-1583333Y-11289762D02*
X-1583333Y-11099286D01*
D11*
X-1678571Y-11670714D02*
X-1583333Y-11289762D01*
D11*
X-1869047Y-12337381D02*
X-1678571Y-11670714D01*
D11*
X-1392857Y-11289762D02*
X-1583333Y-11670714D01*
D11*
X-1202381Y-11099286D02*
X-1392857Y-11289762D01*
D11*
X-1011904Y-11004048D02*
X-1202381Y-11099286D01*
D11*
X-821428Y-11004048D02*
X-1011904Y-11004048D01*
D11*
X-726190Y-11099286D02*
X-821428Y-11004048D01*
D11*
X-726190Y-11194524D02*
X-726190Y-11099286D01*
D11*
X-821428Y-11289762D02*
X-726190Y-11194524D01*
D11*
X-916666Y-11194524D02*
X-821428Y-11289762D01*
D11*
X-821428Y-11099286D02*
X-916666Y-11194524D01*
D11*
X130952Y-11765952D02*
X-250000Y-11861190D01*
D11*
X416666Y-11670714D02*
X130952Y-11765952D01*
D11*
X702381Y-11480238D02*
X416666Y-11670714D01*
D11*
X797619Y-11289762D02*
X702381Y-11480238D01*
D11*
X702381Y-11099286D02*
X797619Y-11289762D01*
D11*
X511904Y-11004048D02*
X702381Y-11099286D01*
D11*
X226190Y-11004048D02*
X511904Y-11004048D01*
D11*
X-59523Y-11099286D02*
X226190Y-11004048D01*
D11*
X-250000Y-11385000D02*
X-59523Y-11099286D01*
D11*
X-345238Y-11670714D02*
X-250000Y-11385000D01*
D11*
X-345238Y-11956429D02*
X-345238Y-11670714D01*
D11*
X-250000Y-12146905D02*
X-345238Y-11956429D01*
D11*
X-154762Y-12242143D02*
X-250000Y-12146905D01*
D11*
X35714Y-12337381D02*
X-154762Y-12242143D01*
D11*
X226190Y-12337381D02*
X35714Y-12337381D01*
D11*
X511904Y-12242143D02*
X226190Y-12337381D01*
D11*
X702381Y-12051667D02*
X511904Y-12242143D01*
D11*
X35714Y-11099286D02*
X226190Y-11004048D01*
D11*
X-154762Y-11385000D02*
X35714Y-11099286D01*
D11*
X-250000Y-11670714D02*
X-154762Y-11385000D01*
D11*
X-250000Y-12051667D02*
X-250000Y-11670714D01*
D11*
X-154762Y-12242143D02*
X-250000Y-12051667D01*
D11*
X1273809Y-11194524D02*
X1178571Y-11385000D01*
D11*
X1464285Y-11004048D02*
X1273809Y-11194524D01*
D11*
X1750000Y-11004048D02*
X1464285Y-11004048D01*
D11*
X1845238Y-11099286D02*
X1750000Y-11004048D01*
D11*
X1845238Y-11385000D02*
X1845238Y-11099286D01*
D11*
X1654761Y-11956429D02*
X1845238Y-11385000D01*
D11*
X1654761Y-12146905D02*
X1654761Y-11956429D01*
D11*
X1845238Y-12337381D02*
X1654761Y-12146905D01*
D11*
X1750000Y-11099286D02*
X1654761Y-11004048D01*
D11*
X1750000Y-11385000D02*
X1750000Y-11099286D01*
D11*
X1559523Y-11956429D02*
X1750000Y-11385000D01*
D11*
X1559523Y-12146905D02*
X1559523Y-11956429D01*
D11*
X1654761Y-12242143D02*
X1559523Y-12146905D01*
D11*
X1845238Y-12337381D02*
X1654761Y-12242143D01*
D11*
X1940476Y-12337381D02*
X1845238Y-12337381D01*
D11*
X2226190Y-12242143D02*
X1940476Y-12337381D01*
D11*
X2416666Y-12051667D02*
X2226190Y-12242143D01*
D11*
X2607143Y-11765952D02*
X2416666Y-12051667D01*
D11*
X2702381Y-11385000D02*
X2607143Y-11765952D01*
D11*
X2702381Y-11004048D02*
X2702381Y-11385000D01*
D11*
X2607143Y-11004048D02*
X2702381Y-11004048D01*
D11*
X2702381Y-11194524D02*
X2607143Y-11004048D01*
D11*
X4416666Y-12337381D02*
X4892857Y-10718333D01*
D11*
X4511904Y-12337381D02*
X5083333Y-10337381D01*
D11*
X4797619Y-10623095D02*
X5083333Y-10337381D01*
D11*
X4511904Y-10813571D02*
X4797619Y-10623095D01*
D11*
X4321428Y-10908810D02*
X4511904Y-10813571D01*
D11*
X4607143Y-10813571D02*
X4988095Y-10623095D01*
D11*
X4321428Y-10908810D02*
X4607143Y-10813571D01*
D10*
X6461428Y11858571D02*
X6390000Y11930000D01*
D10*
X6390000Y11787143D02*
X6461428Y11858571D01*
D10*
X6318571Y11858571D02*
X6390000Y11787143D01*
D10*
X6318571Y11930000D02*
X6318571Y11858571D01*
D10*
X6390000Y12072857D02*
X6318571Y11930000D01*
D10*
X6461428Y12144286D02*
X6390000Y12072857D01*
D10*
X6675714Y12215714D02*
X6461428Y12144286D01*
D10*
X6890000Y12215714D02*
X6675714Y12215714D01*
D10*
X7104286Y12144286D02*
X6890000Y12215714D01*
D10*
X7175714Y12001429D02*
X7104286Y12144286D01*
D10*
X7175714Y11858571D02*
X7175714Y12001429D01*
D10*
X7104286Y11715714D02*
X7175714Y11858571D01*
D10*
X6961428Y11572857D02*
X7104286Y11715714D01*
D10*
X6747143Y11430000D02*
X6961428Y11572857D01*
D10*
X6461428Y11287143D02*
X6747143Y11430000D01*
D10*
X6247143Y11144286D02*
X6461428Y11287143D01*
D10*
X6104286Y11001429D02*
X6247143Y11144286D01*
D10*
X5961428Y10715714D02*
X6104286Y11001429D01*
D10*
X7032857Y12144286D02*
X6890000Y12215714D01*
D10*
X7104286Y12001429D02*
X7032857Y12144286D01*
D10*
X7104286Y11858571D02*
X7104286Y12001429D01*
D10*
X7032857Y11715714D02*
X7104286Y11858571D01*
D10*
X6890000Y11572857D02*
X7032857Y11715714D01*
D10*
X6461428Y11287143D02*
X6890000Y11572857D01*
D10*
X6104286Y10930000D02*
X6032857Y10858571D01*
D10*
X6247143Y10930000D02*
X6104286Y10930000D01*
D10*
X6604286Y10787143D02*
X6247143Y10930000D01*
D10*
X6818571Y10787143D02*
X6604286Y10787143D01*
D10*
X6961428Y10858571D02*
X6818571Y10787143D01*
D10*
X7032857Y11001429D02*
X6961428Y10858571D01*
D10*
X6604286Y10715714D02*
X6247143Y10930000D01*
D10*
X6818571Y10715714D02*
X6604286Y10715714D01*
D10*
X6961428Y10787143D02*
X6818571Y10715714D01*
D10*
X7032857Y11001429D02*
X6961428Y10787143D01*
D10*
X8032857Y12144286D02*
X8247143Y12215714D01*
D10*
X7890000Y12001429D02*
X8032857Y12144286D01*
D10*
X7747143Y11787143D02*
X7890000Y12001429D01*
D10*
X7675714Y11572857D02*
X7747143Y11787143D01*
D10*
X7604286Y11287143D02*
X7675714Y11572857D01*
D10*
X7604286Y11072857D02*
X7604286Y11287143D01*
D10*
X7675714Y10858571D02*
X7604286Y11072857D01*
D10*
X7747143Y10787143D02*
X7675714Y10858571D01*
D10*
X7890000Y10715714D02*
X7747143Y10787143D01*
D10*
X8032857Y10715714D02*
X7890000Y10715714D01*
D10*
X8247143Y10787143D02*
X8032857Y10715714D01*
D10*
X8390000Y10930000D02*
X8247143Y10787143D01*
D10*
X8532857Y11144286D02*
X8390000Y10930000D01*
D10*
X8604286Y11358571D02*
X8532857Y11144286D01*
D10*
X8675714Y11644286D02*
X8604286Y11358571D01*
D10*
X8675714Y11858571D02*
X8675714Y11644286D01*
D10*
X8604286Y12072857D02*
X8675714Y11858571D01*
D10*
X8532857Y12144286D02*
X8604286Y12072857D01*
D10*
X8390000Y12215714D02*
X8532857Y12144286D01*
D10*
X8247143Y12215714D02*
X8390000Y12215714D01*
D10*
X8104286Y12144286D02*
X8247143Y12215714D01*
D10*
X7961428Y12001429D02*
X8104286Y12144286D01*
D10*
X7818571Y11787143D02*
X7961428Y12001429D01*
D10*
X7747143Y11572857D02*
X7818571Y11787143D01*
D10*
X7675714Y11287143D02*
X7747143Y11572857D01*
D10*
X7675714Y11072857D02*
X7675714Y11287143D01*
D10*
X7747143Y10858571D02*
X7675714Y11072857D01*
D10*
X7890000Y10715714D02*
X7747143Y10858571D01*
D10*
X8175714Y10787143D02*
X8032857Y10715714D01*
D10*
X8318571Y10930000D02*
X8175714Y10787143D01*
D10*
X8461429Y11144286D02*
X8318571Y10930000D01*
D10*
X8532857Y11358571D02*
X8461429Y11144286D01*
D10*
X8604286Y11644286D02*
X8532857Y11358571D01*
D10*
X8604286Y11858571D02*
X8604286Y11644286D01*
D10*
X8532857Y12072857D02*
X8604286Y11858571D01*
D10*
X8390000Y12215714D02*
X8532857Y12072857D01*
D10*
X6032381Y-2111428D02*
X5984762Y-2111428D01*
D10*
X6080000Y-2016190D02*
X6032381Y-2111428D01*
D10*
X6032381Y-2301904D02*
X6080000Y-2016190D01*
D10*
X6032381Y-2206666D02*
X6032381Y-2301904D01*
D10*
X5984762Y-2111428D02*
X6032381Y-2206666D01*
D10*
X5937143Y-2063809D02*
X5984762Y-2111428D01*
D10*
X5794285Y-2016190D02*
X5937143Y-2063809D01*
D10*
X5603809Y-2016190D02*
X5794285Y-2016190D01*
D10*
X5460952Y-2063809D02*
X5603809Y-2016190D01*
D10*
X5365714Y-2159047D02*
X5460952Y-2063809D01*
D10*
X5365714Y-2254285D02*
X5365714Y-2159047D01*
D10*
X5413333Y-2349523D02*
X5365714Y-2254285D01*
D10*
X5460952Y-2397142D02*
X5413333Y-2349523D01*
D10*
X5794285Y-2587619D02*
X5460952Y-2397142D01*
D10*
X5889524Y-2682857D02*
X5794285Y-2587619D01*
D10*
X5460952Y-2349523D02*
X5365714Y-2254285D01*
D10*
X5794285Y-2540000D02*
X5460952Y-2349523D01*
D10*
X5841905Y-2587619D02*
X5794285Y-2540000D01*
D10*
X5889524Y-2682857D02*
X5841905Y-2587619D01*
D10*
X5889524Y-2825714D02*
X5889524Y-2682857D01*
D10*
X5841905Y-2920952D02*
X5889524Y-2825714D01*
D10*
X5794285Y-2968571D02*
X5841905Y-2920952D01*
D10*
X5651428Y-3016190D02*
X5794285Y-2968571D01*
D10*
X5460952Y-3016190D02*
X5651428Y-3016190D01*
D10*
X5318095Y-2968571D02*
X5460952Y-3016190D01*
D10*
X5270476Y-2920952D02*
X5318095Y-2968571D01*
D10*
X5222857Y-2825714D02*
X5270476Y-2920952D01*
D10*
X5222857Y-2730476D02*
X5222857Y-2825714D01*
D10*
X5175238Y-3016190D02*
X5222857Y-2730476D01*
D10*
X5222857Y-2920952D02*
X5175238Y-3016190D01*
D10*
X5270476Y-2920952D02*
X5222857Y-2920952D01*
D10*
X6460952Y-3016190D02*
X6556190Y-2016190D01*
D10*
X6508571Y-2920952D02*
X6603809Y-2016190D01*
D10*
X6460952Y-3016190D02*
X6937143Y-2016190D01*
D10*
X6841905Y-3016190D02*
X6937143Y-2016190D01*
D10*
X6889524Y-2920952D02*
X6984762Y-2016190D01*
D10*
X6841905Y-3016190D02*
X7318095Y-2016190D01*
D10*
X6746666Y-2016190D02*
X6413333Y-2016190D01*
D10*
X7460952Y-2016190D02*
X7175238Y-2016190D01*
D10*
X7841905Y-2063809D02*
X7984762Y-2016190D01*
D10*
X7746666Y-2159047D02*
X7841905Y-2063809D01*
D10*
X7651428Y-2301904D02*
X7746666Y-2159047D01*
D10*
X7603809Y-2444762D02*
X7651428Y-2301904D01*
D10*
X7556190Y-2635238D02*
X7603809Y-2444762D01*
D10*
X7556190Y-2778095D02*
X7556190Y-2635238D01*
D10*
X7603809Y-2920952D02*
X7556190Y-2778095D01*
D10*
X7651428Y-2968571D02*
X7603809Y-2920952D01*
D10*
X7746666Y-3016190D02*
X7651428Y-2968571D01*
D10*
X7889524Y-3016190D02*
X7746666Y-3016190D01*
D10*
X8032381Y-2968571D02*
X7889524Y-3016190D01*
D10*
X8127619Y-2873333D02*
X8032381Y-2968571D01*
D10*
X8222857Y-2730476D02*
X8127619Y-2873333D01*
D10*
X8270476Y-2587619D02*
X8222857Y-2730476D01*
D10*
X8318095Y-2397142D02*
X8270476Y-2587619D01*
D10*
X8318095Y-2254285D02*
X8318095Y-2397142D01*
D10*
X8270476Y-2111428D02*
X8318095Y-2254285D01*
D10*
X8222857Y-2063809D02*
X8270476Y-2111428D01*
D10*
X8127619Y-2016190D02*
X8222857Y-2063809D01*
D10*
X7984762Y-2016190D02*
X8127619Y-2016190D01*
D10*
X7889524Y-2063809D02*
X7984762Y-2016190D01*
D10*
X7794286Y-2159047D02*
X7889524Y-2063809D01*
D10*
X7699047Y-2301904D02*
X7794286Y-2159047D01*
D10*
X7651428Y-2444762D02*
X7699047Y-2301904D01*
D10*
X7603809Y-2635238D02*
X7651428Y-2444762D01*
D10*
X7603809Y-2778095D02*
X7603809Y-2635238D01*
D10*
X7651428Y-2920952D02*
X7603809Y-2778095D01*
D10*
X7746666Y-3016190D02*
X7651428Y-2920952D01*
D10*
X7984762Y-2968571D02*
X7889524Y-3016190D01*
D10*
X8080000Y-2873333D02*
X7984762Y-2968571D01*
D10*
X8175238Y-2730476D02*
X8080000Y-2873333D01*
D10*
X8222857Y-2587619D02*
X8175238Y-2730476D01*
D10*
X8270476Y-2397142D02*
X8222857Y-2587619D01*
D10*
X8270476Y-2254285D02*
X8270476Y-2397142D01*
D10*
X8222857Y-2111428D02*
X8270476Y-2254285D01*
D10*
X8127619Y-2016190D02*
X8222857Y-2111428D01*
D10*
X-3923809Y8604286D02*
X-3685714Y9413810D01*
D10*
X-3971428Y8509048D02*
X-3923809Y8604286D01*
D10*
X-4019047Y8461429D02*
X-3971428Y8509048D01*
D10*
X-4114285Y8413810D02*
X-4019047Y8461429D01*
D10*
X-4209524Y8413810D02*
X-4114285Y8413810D01*
D10*
X-4304762Y8461429D02*
X-4209524Y8413810D01*
D10*
X-4352381Y8556667D02*
X-4304762Y8461429D01*
D10*
X-4352381Y8651905D02*
X-4352381Y8556667D01*
D10*
X-4304762Y8699524D02*
X-4352381Y8651905D01*
D10*
X-4257143Y8651905D02*
X-4304762Y8699524D01*
D10*
X-4304762Y8604286D02*
X-4257143Y8651905D01*
D10*
X-3971428Y8604286D02*
X-3733333Y9413810D01*
D10*
X-4019047Y8509048D02*
X-3971428Y8604286D01*
D10*
X-4114285Y8413810D02*
X-4019047Y8509048D01*
D10*
X-3542857Y9413810D02*
X-3876190Y9413810D01*
D10*
X-3161904Y9175714D02*
X-3209524Y9223333D01*
D10*
X-3209524Y9128095D02*
X-3161904Y9175714D01*
D10*
X-3257143Y9175714D02*
X-3209524Y9128095D01*
D10*
X-3257143Y9223333D02*
X-3257143Y9175714D01*
D10*
X-3209524Y9318571D02*
X-3257143Y9223333D01*
D10*
X-3161904Y9366190D02*
X-3209524Y9318571D01*
D10*
X-3019047Y9413810D02*
X-3161904Y9366190D01*
D10*
X-2876190Y9413810D02*
X-3019047Y9413810D01*
D10*
X-2733333Y9366190D02*
X-2876190Y9413810D01*
D10*
X-2685714Y9270952D02*
X-2733333Y9366190D01*
D10*
X-2685714Y9175714D02*
X-2685714Y9270952D01*
D10*
X-2733333Y9080476D02*
X-2685714Y9175714D01*
D10*
X-2828571Y8985238D02*
X-2733333Y9080476D01*
D10*
X-2971428Y8890000D02*
X-2828571Y8985238D01*
D10*
X-3161904Y8794762D02*
X-2971428Y8890000D01*
D10*
X-3304762Y8699524D02*
X-3161904Y8794762D01*
D10*
X-3400000Y8604286D02*
X-3304762Y8699524D01*
D10*
X-3495238Y8413810D02*
X-3400000Y8604286D01*
D10*
X-2780952Y9366190D02*
X-2876190Y9413810D01*
D10*
X-2733333Y9270952D02*
X-2780952Y9366190D01*
D10*
X-2733333Y9175714D02*
X-2733333Y9270952D01*
D10*
X-2780952Y9080476D02*
X-2733333Y9175714D01*
D10*
X-2876190Y8985238D02*
X-2780952Y9080476D01*
D10*
X-3161904Y8794762D02*
X-2876190Y8985238D01*
D10*
X-3400000Y8556667D02*
X-3447619Y8509048D01*
D10*
X-3304762Y8556667D02*
X-3400000Y8556667D01*
D10*
X-3066666Y8461429D02*
X-3304762Y8556667D01*
D10*
X-2923809Y8461429D02*
X-3066666Y8461429D01*
D10*
X-2828571Y8509048D02*
X-2923809Y8461429D01*
D10*
X-2780952Y8604286D02*
X-2828571Y8509048D01*
D10*
X-3066666Y8413810D02*
X-3304762Y8556667D01*
D10*
X-2923809Y8413810D02*
X-3066666Y8413810D01*
D10*
X-2828571Y8461429D02*
X-2923809Y8413810D01*
D10*
X-2780952Y8604286D02*
X-2828571Y8461429D01*
D10*
X-7889524Y2063809D02*
X-7937143Y3063809D01*
D10*
X-7841905Y2159047D02*
X-7889524Y3063809D01*
D10*
X-7889524Y2063809D02*
X-7270476Y3063809D01*
D10*
X-7746666Y3063809D02*
X-8032381Y3063809D01*
D10*
X-7175238Y3063809D02*
X-7460952Y3063809D01*
D10*
X-7127619Y2063809D02*
X-6841905Y3063809D01*
D10*
X-7080000Y2063809D02*
X-6794286Y3063809D01*
D10*
X-6556190Y3063809D02*
X-6984762Y3063809D01*
D10*
X-6413333Y3016190D02*
X-6556190Y3063809D01*
D10*
X-6365714Y2968571D02*
X-6413333Y3016190D01*
D10*
X-6318095Y2825714D02*
X-6365714Y2968571D01*
D10*
X-6318095Y2635238D02*
X-6318095Y2825714D01*
D10*
X-6365714Y2444762D02*
X-6318095Y2635238D01*
D10*
X-6460952Y2254285D02*
X-6365714Y2444762D01*
D10*
X-6556190Y2159047D02*
X-6460952Y2254285D01*
D10*
X-6651428Y2111428D02*
X-6556190Y2159047D01*
D10*
X-6841905Y2063809D02*
X-6651428Y2111428D01*
D10*
X-7270476Y2063809D02*
X-6841905Y2063809D01*
D10*
X-6460952Y3016190D02*
X-6556190Y3063809D01*
D10*
X-6413333Y2968571D02*
X-6460952Y3016190D01*
D10*
X-6365714Y2825714D02*
X-6413333Y2968571D01*
D10*
X-6365714Y2635238D02*
X-6365714Y2825714D01*
D10*
X-6413333Y2444762D02*
X-6365714Y2635238D01*
D10*
X-6508571Y2254285D02*
X-6413333Y2444762D01*
D10*
X-6603809Y2159047D02*
X-6508571Y2254285D01*
D10*
X-6699047Y2111428D02*
X-6603809Y2159047D01*
D10*
X-6841905Y2063809D02*
X-6699047Y2111428D01*
D10*
X-6032381Y2063809D02*
X-5746666Y3063809D01*
D10*
X-5984762Y2063809D02*
X-5699047Y3063809D01*
D10*
X-5460952Y3063809D02*
X-5889524Y3063809D01*
D10*
X-5318095Y3016190D02*
X-5460952Y3063809D01*
D10*
X-5270476Y2968571D02*
X-5318095Y3016190D01*
D10*
X-5222857Y2825714D02*
X-5270476Y2968571D01*
D10*
X-5222857Y2635238D02*
X-5222857Y2825714D01*
D10*
X-5270476Y2444762D02*
X-5222857Y2635238D01*
D10*
X-5365714Y2254285D02*
X-5270476Y2444762D01*
D10*
X-5460952Y2159047D02*
X-5365714Y2254285D01*
D10*
X-5556190Y2111428D02*
X-5460952Y2159047D01*
D10*
X-5746666Y2063809D02*
X-5556190Y2111428D01*
D10*
X-6175238Y2063809D02*
X-5746666Y2063809D01*
D10*
X-5365714Y3016190D02*
X-5460952Y3063809D01*
D10*
X-5318095Y2968571D02*
X-5365714Y3016190D01*
D10*
X-5270476Y2825714D02*
X-5318095Y2968571D01*
D10*
X-5270476Y2635238D02*
X-5270476Y2825714D01*
D10*
X-5318095Y2444762D02*
X-5270476Y2635238D01*
D10*
X-5413333Y2254285D02*
X-5318095Y2444762D01*
D10*
X-5508571Y2159047D02*
X-5413333Y2254285D01*
D10*
X-5603809Y2111428D02*
X-5508571Y2159047D01*
D10*
X-5746666Y2063809D02*
X-5603809Y2111428D01*
D10*
X-8255000Y825500D02*
X-5080000Y825500D01*
D10*
X4400000Y-7620000D02*
X-4400000Y-7620000D01*
D10*
X-3130000Y2540000D02*
X-4400000Y2540000D01*
D10*
X4400000Y7620000D02*
X4400000Y-7620000D01*
D10*
X-4400000Y-7620000D02*
X-4400000Y-2540000D01*
D10*
X-4400000Y2540000D02*
X-4400000Y7620000D01*
D10*
X-4400000Y-2540000D02*
X-3130000Y-2540000D01*
D10*
X-3130000Y-2540000D02*
X-3130000Y2540000D01*
D10*
X-4400000Y7620000D02*
X4400000Y7620000D01*
G75*
M02*
