M48
FMAT,2
METRIC,TZ
T3C0.350
T2C1.000
T1C1.020
%
G90
G05
M71
T3
X3.810Y0.000
X5.080Y3.810
X5.080Y1.270
X8.890Y0.000
T2
X1.270Y0.000
X-1.270Y2.540
X1.270Y2.540
X-1.270Y-2.540
X-1.270Y0.000
X1.270Y-2.540
T1
X12.700Y11.430
X12.700Y3.810
X10.160Y3.810
X10.160Y6.350
X12.700Y-3.810
X12.700Y-8.890
X12.700Y6.350
X12.700Y-1.270
X10.160Y-8.890
X10.160Y-1.270
X10.160Y11.430
X12.700Y1.270
X10.160Y1.270
X12.700Y-6.350
X10.160Y-11.430
X12.700Y8.890
X10.160Y-6.350
X12.700Y-11.430
X10.160Y8.890
X10.160Y-3.810
M30
