%FSLAX46Y46*%
%MOMM*%
%ADD10C,0.250000*%
%AMPS12*
1,1,1.700000,0.000000,0.000000*
%
%ADD12PS12*%
%AMPS11*
1,1,1.700000,0.000000,0.000000*
%
%ADD11PS11*%
%AMPS13*
1,1,0.700000,0.000000,0.000000*
%
%ADD13PS13*%
G01*
%LPD*%
G01*
%LPD*%
D10*
X5080000Y1270000D02*
X5080000Y3810000D01*
D10*
X3810000Y0D02*
X8890000Y0D01*
D10*
X10160000Y3810000D02*
X10160000Y6350000D01*
D10*
X10160000Y-1270000D02*
X10160000Y1270000D01*
D10*
X10160000Y-1270000D02*
X10160000Y-2220000D01*
D10*
X10160000Y-3810000D02*
X10160000Y-6350000D01*
D10*
X10160000Y9840000D02*
X10160000Y11430000D01*
D10*
X10160000Y-2220000D02*
X10160000Y-3810000D01*
D10*
X10160000Y8890000D02*
X10160000Y9840000D01*
D10*
X10160000Y1270000D02*
X10160000Y3810000D01*
D10*
X10160000Y6350000D02*
X10160000Y8890000D01*
G75*
D11*
X12700000Y11430000D03*
D11*
X12700000Y3810000D03*
D11*
X10160000Y3810000D03*
D11*
X10160000Y6350000D03*
D11*
X12700000Y-3810000D03*
D11*
X12700000Y-8890000D03*
D11*
X12700000Y6350000D03*
D11*
X12700000Y-1270000D03*
D11*
X10160000Y-8890000D03*
D11*
X10160000Y-1270000D03*
D11*
X10160000Y11430000D03*
D11*
X12700000Y1270000D03*
D11*
X10160000Y1270000D03*
D11*
X12700000Y-6350000D03*
D11*
X10160000Y-11430000D03*
D11*
X12700000Y8890000D03*
D11*
X10160000Y-6350000D03*
D11*
X12700000Y-11430000D03*
D11*
X10160000Y8890000D03*
D11*
X10160000Y-3810000D03*
D12*
X1270000Y0D03*
D12*
X-1270000Y2540000D03*
D12*
X1270000Y2540000D03*
D12*
X-1270000Y-2540000D03*
D12*
X-1270000Y0D03*
D12*
X1270000Y-2540000D03*
D13*
X3810000Y0D03*
D13*
X5080000Y3810000D03*
D13*
X5080000Y1270000D03*
D13*
X8890000Y0D03*
M02*
